<svg width="103" height="103" viewBox="0 0 103 103" fill="none" xmlns="http://www.w3.org/2000/svg">
<rect width="103" height="103" rx="51.5" fill="white"/>
<path d="M51.5896 20.5784C44.3894 25.1712 44.3461 37.8892 51.5896 42.4928C58.2273 37.8514 59.0117 26.1395 51.5896 20.5784Z" fill="#9A684B"/>
<path d="M52.2226 82.4213C59.796 81.9831 68.3811 76.0001 67.2289 67.3933C59.0928 64.1151 50.8593 72.235 52.2226 82.4213Z" fill="#9A684B"/>
<path d="M67.2072 52.8847C58.9142 49.7579 50.8431 57.7804 52.2117 68.0317C59.4281 67.4799 68.4135 61.8863 67.2072 52.8847Z" fill="#9A684B"/>
<path d="M50.6971 68.1291C51.9955 57.629 44.3462 49.8824 35.8693 52.8414C34.4358 61.0154 42.4366 67.085 50.6971 68.1291Z" fill="#9A684B"/>
<path d="M35.8314 67.296C35.1498 75.2752 42.7612 82.8541 50.6971 82.2915C52.2118 69.7953 42.4961 65.1214 35.8314 67.296Z" fill="#9A684B"/>
<path d="M52.2172 53.6205C61.841 52.4412 68.6896 45.3059 67.0991 38.2842C59.5311 36.3475 51.0704 41.0431 52.2172 53.6205Z" fill="#9A684B"/>
<path d="M50.6429 53.6854C52.3145 42.0547 43.5238 35.8065 35.7556 38.5005C34.7981 46.4094 41.7062 52.268 50.6429 53.6854Z" fill="#9A684B"/>
<path fill-rule="evenodd" clip-rule="evenodd" d="M4 51.5C4 25.2665 25.2665 4 51.5 4C77.7335 4 99 25.2665 99 51.5C99 77.7335 77.7335 99 51.5 99C25.2665 99 4 77.7335 4 51.5ZM19.8055 80.3945C12.852 72.7716 8.61165 62.631 8.61165 51.5C8.61165 27.8134 27.8134 8.61165 51.5 8.61165C62.631 8.61165 72.7716 12.852 80.3945 19.8055L66.7064 33.4936C67.2233 33.5791 68.1019 34.3573 68.1019 34.3573L69.0243 34.8981L70.0475 35.5203L70.8689 35.8204L83.6308 23.0911C90.3249 30.6566 94.3884 40.6038 94.3884 51.5C94.3884 75.1866 75.1866 94.3884 51.5 94.3884C40.6038 94.3884 30.6566 90.3249 23.0911 83.6308L32.3154 74.4065C31.67 72.7055 31.2716 70.8903 31.1916 69.0084L19.8055 80.3945Z" fill="#9A684B"/>
</svg>
