<svg width="103" height="103" viewBox="0 0 103 103" fill="none" xmlns="http://www.w3.org/2000/svg">
<rect width="103" height="103" rx="51.5" fill="white"/>
<path d="M59.3215 41.4466C58.6666 40.2476 58.0025 39.0486 57.3753 37.8403C57.1075 37.3205 56.8883 36.7771 56.7205 36.217C56.5052 35.1023 56.4463 33.963 56.5452 32.832C56.5721 32.6812 56.6503 32.5444 56.7666 32.4447C56.9525 32.2446 57.0968 32.0094 57.1909 31.7529C57.2889 31.4972 57.3328 31.224 57.32 30.9505C57.32 30.0282 57.32 29.1058 57.32 28.1835C57.3407 27.9093 57.3019 27.6339 57.2064 27.3761C57.1108 27.1183 56.9606 26.8841 56.7662 26.6897C56.5718 26.4953 56.3377 26.3451 56.0798 26.2496C55.822 26.154 55.5466 26.1152 55.2724 26.1359H47.3681C47.1008 26.1162 46.8324 26.1532 46.5805 26.2445C46.3286 26.3358 46.0988 26.4794 45.9063 26.6658C45.7138 26.8522 45.5629 27.0772 45.4636 27.3261C45.3642 27.5749 45.3186 27.842 45.3297 28.1097C45.3297 29.032 45.3297 30.0282 45.3297 30.9874C45.3152 31.2521 45.358 31.5168 45.4551 31.7635C45.5522 32.0102 45.7013 32.2331 45.8923 32.417C45.971 32.4875 46.0312 32.5761 46.0676 32.6753C46.114 32.7729 46.1331 32.8812 46.1229 32.9888C46.1229 33.6714 46.1229 34.3539 46.1229 35.0364C46.1053 35.8401 45.9034 36.629 45.5326 37.3422C44.8316 38.6704 44.1491 40.0078 43.4113 41.3175C42.3498 43.1989 41.8057 45.3279 41.8341 47.4879C41.8341 51.7306 41.8341 55.9733 41.8341 60.216V73.7189C41.8202 73.9924 41.8202 74.2664 41.8341 74.5398C41.8823 75.359 42.238 76.1299 42.8302 76.698C43.4194 77.2597 44.202 77.5734 45.0161 77.5743C49.2312 77.5743 53.4277 77.5743 57.6336 77.5743C58.1211 77.5807 58.6027 77.4667 59.0355 77.2422C59.4724 77.0269 59.8517 76.7108 60.1423 76.3199C60.6328 75.6576 60.8803 74.8466 60.8433 74.0233C60.8433 65.1259 60.8433 56.2285 60.8433 47.3311C60.8433 45.2723 60.3196 43.2473 59.3215 41.4466ZM47.3773 28.2389H55.2447V30.9136H47.3773C47.3496 30.0189 47.3588 29.152 47.3773 28.2389Z" fill="#9A684B"/>
<path fill-rule="evenodd" clip-rule="evenodd" d="M4 51.5C4 25.2665 25.2665 4 51.5 4C77.7335 4 99 25.2665 99 51.5C99 77.7335 77.7335 99 51.5 99C25.2665 99 4 77.7335 4 51.5ZM19.3691 79.9087C12.675 72.3433 8.61165 62.3962 8.61165 51.5C8.61165 27.8134 27.8134 8.61165 51.5 8.61165C62.3962 8.61165 72.3433 12.675 79.9088 19.3691L62.149 37.1289C62.3544 37.5098 62.5629 37.8919 62.7705 38.2724C62.9004 38.5105 63.03 38.7479 63.1582 38.9839L63.2965 39.2237C63.6971 39.9482 64.0424 40.6988 64.3307 41.469L83.1944 22.6053C90.1479 30.2283 94.3883 40.3689 94.3883 51.5C94.3883 75.1866 75.1866 94.3883 51.5 94.3883C40.3689 94.3883 30.2283 90.1479 22.6053 83.1943L37.1761 68.6235V62.1017L19.3691 79.9087Z" fill="#9A684B"/>
</svg>
