<svg width="145" height="145" viewBox="0 0 145 145" fill="none" xmlns="http://www.w3.org/2000/svg">
<g clip-path="url(#clip0_113_237)">
<rect width="145" height="145" rx="72.5" fill="#E7FFBF"/>
<path fill-rule="evenodd" clip-rule="evenodd" d="M12.1232 72.5C12.1232 105.845 39.1548 132.877 72.5 132.877C105.845 132.877 132.877 105.845 132.877 72.5C132.877 39.1548 105.845 12.1232 72.5 12.1232C39.1548 12.1232 12.1232 39.1548 12.1232 72.5ZM72.5 5.63109C35.5693 5.63109 5.63107 35.5693 5.63107 72.5C5.63107 109.431 35.5693 139.369 72.5 139.369C109.431 139.369 139.369 109.431 139.369 72.5C139.369 35.5693 109.431 5.63109 72.5 5.63109Z" fill="#9A684B"/>
<path fill-rule="evenodd" clip-rule="evenodd" d="M7.03883 72.5C7.03883 109.152 36.3468 138.864 72.5 138.864C108.653 138.864 137.961 109.152 137.961 72.5C137.961 35.8481 108.653 6.13592 72.5 6.13592C36.3468 6.13592 7.03883 35.8481 7.03883 72.5ZM72.5 -1C32.4594 -1 0 31.9071 0 72.5C0 113.093 32.4594 146 72.5 146C112.541 146 145 113.093 145 72.5C145 31.9071 112.541 -1 72.5 -1Z" fill="white"/>
<path d="M67.6092 123.052C65.5798 122.439 63.5286 121.886 61.5184 121.206C54.3564 118.832 47.7217 114.976 42.0072 109.867C33.9063 102.583 28.3461 93.5884 25.5701 82.7534C24.1715 77.312 23.6629 71.6616 24.0659 66.0422C24.4561 60.45 25.724 54.9636 27.8182 49.804C28.0234 49.2966 28.2203 49.1906 28.7317 49.3253C36.1161 51.2773 42.68 54.9778 48.5438 60.0055C57.6949 67.8394 64.3546 77.5852 68.6567 89.1139C70.6218 94.328 71.8447 99.8167 72.2859 105.404C72.6955 110.4 72.3026 115.432 71.1236 120.292C71.0776 120.436 71.0228 120.577 70.9595 120.713C70.3222 119.151 69.7041 117.698 69.1271 116.227C67.3794 111.776 65.7111 107.29 63.8951 102.867C61.3739 96.6257 58.1286 90.7339 54.2325 85.3245C50.8462 80.7195 46.9529 76.5496 42.6335 72.9015C42.4815 72.7575 42.2902 72.6672 42.0865 72.6435C42.7156 73.5035 43.3555 74.349 43.9764 75.2233C48.7872 81.9508 52.7583 89.2143 56.1962 96.7902C60.047 105.28 63.7665 113.837 67.5435 122.364C67.6146 122.525 67.6693 122.697 67.7322 122.863L67.6092 123.052Z" fill="#8BBB39"/>
<path d="M101.178 87.9674C89.91 96.4749 83.089 108.368 77.8379 121.545C77.7969 121.275 77.7477 121.008 77.7176 120.736C77.6875 120.464 77.6629 120.143 77.6383 119.845C76.9354 111.552 77.6109 103.437 80.4908 95.615C83.5731 87.2364 88.682 80.4545 95.3717 74.9252C101.575 69.8001 108.549 66.1827 115.969 63.4596C116.032 63.4366 116.097 63.4309 116.261 63.3936C116.376 64.4198 116.516 65.4317 116.595 66.4492C117.205 74.1513 116.745 81.7473 114.681 89.22C112.454 97.3176 108.39 104.188 102.576 109.987C96.6799 115.849 89.7381 120.433 82.1482 123.476C81.8474 123.6 81.5438 123.709 81.0816 123.883C83.6608 117.439 86.6278 111.173 89.9647 105.123C93.29 99.1199 97.0382 93.3855 101.178 87.9674Z" fill="#8BBB39"/>
<path d="M68.8556 41V27.9091H74.0203C75.009 27.9091 75.8527 28.0859 76.5516 28.4396C77.2547 28.7891 77.7895 29.2855 78.156 29.929C78.5267 30.5682 78.7121 31.3203 78.7121 32.1854C78.7121 33.0547 78.5246 33.8026 78.1496 34.429C77.7746 35.0511 77.2313 35.5284 76.5196 35.8608C75.8122 36.1932 74.9557 36.3594 73.95 36.3594H70.4919V34.1349H73.5026C74.031 34.1349 74.4699 34.0625 74.8193 33.9176C75.1688 33.7727 75.4287 33.5554 75.5992 33.2656C75.7739 32.9759 75.8612 32.6158 75.8612 32.1854C75.8612 31.7507 75.7739 31.3842 75.5992 31.0859C75.4287 30.7876 75.1666 30.5618 74.8129 30.4084C74.4635 30.2507 74.0225 30.1719 73.4898 30.1719H71.6233V41H68.8556ZM75.9252 35.0426L79.1787 41H76.1233L72.9401 35.0426H75.9252ZM83.4166 41.1854C82.7902 41.1854 82.232 41.0767 81.7419 40.8594C81.2519 40.6378 80.8641 40.3118 80.5786 39.8814C80.2973 39.4467 80.1567 38.9055 80.1567 38.2578C80.1567 37.7124 80.2568 37.2543 80.4571 36.8835C80.6574 36.5128 80.9301 36.2145 81.2753 35.9886C81.6205 35.7628 82.0125 35.5923 82.4514 35.4773C82.8946 35.3622 83.3591 35.2812 83.8449 35.2344C84.4159 35.1747 84.8762 35.1193 85.2256 35.0682C85.575 35.0128 85.8286 34.9318 85.9862 34.8253C86.1439 34.7187 86.2227 34.5611 86.2227 34.3523V34.3139C86.2227 33.9091 86.0949 33.5959 85.8392 33.3743C85.5878 33.1527 85.2298 33.0419 84.7654 33.0419C84.2753 33.0419 83.8854 33.1506 83.5956 33.3679C83.3058 33.581 83.1141 33.8494 83.0203 34.1733L80.5019 33.9688C80.6297 33.3722 80.8811 32.8565 81.2561 32.4219C81.6311 31.983 82.1148 31.6463 82.7071 31.4119C83.3037 31.1733 83.9941 31.054 84.7781 31.054C85.3236 31.054 85.8456 31.1179 86.3442 31.2457C86.847 31.3736 87.2923 31.5717 87.6801 31.8402C88.0722 32.1087 88.3811 32.4538 88.607 32.8757C88.8328 33.2933 88.9458 33.794 88.9458 34.3778V41H86.3634V39.6385H86.2867C86.129 39.9453 85.9181 40.2159 85.6539 40.4503C85.3896 40.6804 85.0722 40.8615 84.7014 40.9936C84.3307 41.1214 83.9024 41.1854 83.4166 41.1854ZM84.1965 39.3061C84.597 39.3061 84.9507 39.2273 85.2575 39.0696C85.5644 38.9077 85.8051 38.6903 85.9798 38.4176C86.1546 38.1449 86.2419 37.8359 86.2419 37.4908V36.4489C86.1567 36.5043 86.0395 36.5554 85.8904 36.6023C85.7455 36.6449 85.5814 36.6854 85.3982 36.7237C85.2149 36.7578 85.0317 36.7898 84.8485 36.8196C84.6652 36.8452 84.499 36.8686 84.3499 36.8899C84.0303 36.9368 83.7512 37.0114 83.5125 37.1136C83.2739 37.2159 83.0885 37.3544 82.9564 37.5291C82.8243 37.6996 82.7583 37.9126 82.7583 38.1683C82.7583 38.5391 82.8925 38.8224 83.161 39.0185C83.4337 39.2102 83.7789 39.3061 84.1965 39.3061ZM92.9951 41L90.3232 31.1818H93.0782L94.5995 37.7784H94.689L96.2742 31.1818H98.9781L100.589 37.7401H100.672L102.168 31.1818H104.916L102.251 41H99.368L97.6805 34.8253H97.559L95.8715 41H92.9951ZM61.9306 44.9091L65.0946 54.8551H65.2161L68.3865 44.9091H71.4547L66.9419 58H63.3752L58.856 44.9091H61.9306ZM76.3462 58.1918C75.3363 58.1918 74.467 57.9872 73.7383 57.5781C73.0138 57.1648 72.4556 56.581 72.0636 55.8267C71.6715 55.0682 71.4755 54.1712 71.4755 53.1357C71.4755 52.1257 71.6715 51.2393 72.0636 50.4766C72.4556 49.7138 73.0075 49.1193 73.7191 48.6932C74.435 48.267 75.2745 48.054 76.2376 48.054C76.8853 48.054 77.4883 48.1584 78.0465 48.3672C78.609 48.5717 79.0991 48.8807 79.5167 49.294C79.9386 49.7074 80.2667 50.2273 80.5011 50.8537C80.7354 51.4759 80.8526 52.2045 80.8526 53.0398V53.7876H72.5621V52.1001H78.2894C78.2894 51.7081 78.2042 51.3608 78.0337 51.0582C77.8633 50.7557 77.6268 50.5192 77.3242 50.3487C77.0259 50.174 76.6786 50.0866 76.2823 50.0866C75.869 50.0866 75.5025 50.1825 75.1829 50.3743C74.8675 50.5618 74.6204 50.8153 74.4414 51.1349C74.2624 51.4503 74.1708 51.8018 74.1665 52.1896V53.794C74.1665 54.2798 74.256 54.6996 74.435 55.0533C74.6183 55.407 74.8761 55.6797 75.2085 55.8714C75.5408 56.0632 75.935 56.1591 76.391 56.1591C76.6935 56.1591 76.9705 56.1165 77.2219 56.0312C77.4734 55.946 77.6886 55.8182 77.8675 55.6477C78.0465 55.4773 78.1829 55.2685 78.2766 55.0213L80.7951 55.1875C80.6673 55.7926 80.4052 56.321 80.0089 56.7727C79.6168 57.2202 79.1097 57.5696 78.4876 57.821C77.8697 58.0682 77.1559 58.1918 76.3462 58.1918ZM87.0529 61.8864C86.1708 61.8864 85.4144 61.7649 84.7837 61.522C84.1573 61.2834 83.6587 60.9574 83.288 60.544C82.9173 60.1307 82.6765 59.6662 82.5657 59.1506L85.0842 58.8118C85.1609 59.0078 85.2823 59.1911 85.4485 59.3615C85.6147 59.532 85.8342 59.6683 86.1069 59.7706C86.3839 59.8771 86.7205 59.9304 87.1168 59.9304C87.7092 59.9304 88.1971 59.7855 88.5806 59.4957C88.9684 59.2102 89.1623 58.7308 89.1623 58.0575V56.2614H89.0472C88.9279 56.5341 88.7489 56.7919 88.5103 57.0348C88.2717 57.2777 87.9648 57.4759 87.5898 57.6293C87.2148 57.7827 86.7674 57.8594 86.2475 57.8594C85.5103 57.8594 84.8391 57.6889 84.234 57.348C83.6332 57.0028 83.1538 56.4766 82.7958 55.7692C82.4421 55.0575 82.2653 54.1584 82.2653 53.0717C82.2653 51.9595 82.4464 51.0305 82.8086 50.2848C83.1708 49.5391 83.6523 48.9808 84.2532 48.6101C84.8583 48.2393 85.521 48.054 86.2411 48.054C86.7908 48.054 87.2511 48.1477 87.6218 48.3352C87.9925 48.5185 88.2908 48.7486 88.5167 49.0256C88.7468 49.2983 88.9237 49.5668 89.0472 49.831H89.1495V48.1818H91.8533V58.0959C91.8533 58.9311 91.6488 59.63 91.2397 60.1925C90.8306 60.755 90.2638 61.1768 89.5394 61.4581C88.8192 61.7436 87.9904 61.8864 87.0529 61.8864ZM87.1104 55.8139C87.5494 55.8139 87.9201 55.7053 88.2227 55.4879C88.5295 55.2663 88.7638 54.951 88.9258 54.5419C89.092 54.1286 89.1751 53.6342 89.1751 53.0589C89.1751 52.4837 89.0941 51.9851 88.9322 51.5632C88.7702 51.1371 88.5359 50.8068 88.229 50.5724C87.9222 50.3381 87.5494 50.2209 87.1104 50.2209C86.663 50.2209 86.2859 50.3423 85.979 50.5852C85.6722 50.8239 85.44 51.1562 85.2823 51.5824C85.1246 52.0085 85.0458 52.5007 85.0458 53.0589C85.0458 53.6257 85.1246 54.1158 85.2823 54.5291C85.4442 54.9382 85.6765 55.2557 85.979 55.4815C86.2859 55.7031 86.663 55.8139 87.1104 55.8139ZM96.82 58.1854C96.1935 58.1854 95.6353 58.0767 95.1452 57.8594C94.6552 57.6378 94.2674 57.3118 93.9819 56.8814C93.7006 56.4467 93.56 55.9055 93.56 55.2578C93.56 54.7124 93.6602 54.2543 93.8604 53.8835C94.0607 53.5128 94.3335 53.2145 94.6786 52.9886C95.0238 52.7628 95.4158 52.5923 95.8548 52.4773C96.2979 52.3622 96.7624 52.2812 97.2482 52.2344C97.8192 52.1747 98.2795 52.1193 98.6289 52.0682C98.9783 52.0128 99.2319 51.9318 99.3896 51.8253C99.5472 51.7187 99.6261 51.5611 99.6261 51.3523V51.3139C99.6261 50.9091 99.4982 50.5959 99.2425 50.3743C98.9911 50.1527 98.6332 50.0419 98.1687 50.0419C97.6786 50.0419 97.2887 50.1506 96.9989 50.3679C96.7092 50.581 96.5174 50.8494 96.4237 51.1733L93.9052 50.9688C94.033 50.3722 94.2844 49.8565 94.6594 49.4219C95.0344 48.983 95.5181 48.6463 96.1104 48.4119C96.707 48.1733 97.3974 48.054 98.1815 48.054C98.7269 48.054 99.2489 48.1179 99.7475 48.2457C100.25 48.3736 100.696 48.5717 101.083 48.8402C101.475 49.1087 101.784 49.4538 102.01 49.8757C102.236 50.2933 102.349 50.794 102.349 51.3778V58H99.7667V56.6385H99.69C99.5323 56.9453 99.3214 57.2159 99.0572 57.4503C98.793 57.6804 98.4755 57.8615 98.1048 57.9936C97.734 58.1214 97.3058 58.1854 96.82 58.1854ZM97.5998 56.3061C98.0004 56.3061 98.354 56.2273 98.6609 56.0696C98.9677 55.9077 99.2085 55.6903 99.3832 55.4176C99.5579 55.1449 99.6452 54.8359 99.6452 54.4908V53.4489C99.56 53.5043 99.4428 53.5554 99.2937 53.6023C99.1488 53.6449 98.9847 53.6854 98.8015 53.7237C98.6183 53.7578 98.435 53.7898 98.2518 53.8196C98.0685 53.8452 97.9023 53.8686 97.7532 53.8899C97.4336 53.9368 97.1545 54.0114 96.9158 54.1136C96.6772 54.2159 96.4918 54.3544 96.3597 54.5291C96.2276 54.6996 96.1616 54.9126 96.1616 55.1683C96.1616 55.5391 96.2958 55.8224 96.5643 56.0185C96.837 56.2102 97.1822 56.3061 97.5998 56.3061ZM107.185 52.3239V58H104.462V48.1818H107.057V49.9141H107.172C107.389 49.343 107.754 48.8913 108.265 48.5589C108.776 48.2223 109.396 48.054 110.125 48.054C110.807 48.054 111.401 48.2031 111.908 48.5014C112.415 48.7997 112.81 49.2259 113.091 49.7798C113.372 50.3295 113.513 50.9858 113.513 51.7486V58H110.79V52.2344C110.794 51.6335 110.641 51.1648 110.33 50.8281C110.018 50.4872 109.59 50.3168 109.045 50.3168C108.678 50.3168 108.354 50.3956 108.073 50.5533C107.796 50.7109 107.579 50.9411 107.421 51.2436C107.268 51.5419 107.189 51.902 107.185 52.3239Z" fill="#8BBB39"/>
</g>
<defs>
<clipPath id="clip0_113_237">
<rect width="145" height="145" rx="72.5" fill="white"/>
</clipPath>
</defs>
</svg>
