<svg width="103" height="103" viewBox="0 0 103 103" fill="none" xmlns="http://www.w3.org/2000/svg">
<rect width="103" height="103" rx="51.5" fill="white"/>
<path d="M57.8244 76.952L55.0931 76.5166C51.8591 75.9728 48.7325 74.9172 45.8306 73.3895C44.7059 72.7447 43.7568 71.8336 43.0666 70.7362C42.3764 69.6388 41.9663 68.3888 41.8723 67.0958C41.8723 66.3437 41.8723 65.552 41.6744 64.7999C41.5962 64.0736 41.3428 63.3772 40.936 62.7705C40.5292 62.1637 39.9812 61.6648 39.339 61.3165C37.6355 60.4734 36.2022 59.1699 35.2018 57.5538C34.2013 55.9376 33.6737 54.0735 33.6786 52.1728C33.6913 51.1899 33.4221 50.2239 32.903 49.3891C32.3839 48.5543 31.6365 47.8857 30.7494 47.4624C29.1668 46.6818 27.8753 45.4158 27.0634 43.849C26.2516 42.2823 25.9621 40.4971 26.2369 38.7541C26.7105 34.9651 27.7513 31.2688 29.3244 27.7894L29.6014 27.4332C29.8106 27.3926 30.0256 27.3926 30.2348 27.4332C33.8715 27.8992 37.4195 28.8996 40.764 30.402C42.4027 31.0982 43.7832 32.2887 44.7127 33.8073C45.6423 35.3258 46.0747 37.0968 45.9494 38.8728C45.9285 39.7359 46.1515 40.5874 46.5926 41.3295C47.0337 42.0717 47.675 42.6745 48.4431 43.0687C50.1307 43.9415 51.5426 45.2661 52.5212 46.8947C53.4997 48.5233 54.0064 50.3917 53.9848 52.2915C53.9871 53.2407 54.2603 54.1695 54.7721 54.9688C55.284 55.7681 56.0133 56.4049 56.8744 56.8041C58.5034 57.6075 59.8277 58.9176 60.6485 60.5379C61.4693 62.1581 61.7423 64.0009 61.4265 65.7895C60.9094 69.463 59.8837 73.0467 58.3786 76.4374L57.8244 76.952ZM35.1036 32.6979C33.5383 32.8775 32.1047 33.6601 31.1069 34.8795C30.1092 36.0989 29.6259 37.6592 29.7598 39.2291C29.9299 40.8195 30.7182 42.2794 31.9548 43.2938C33.1914 44.3083 34.7773 44.7961 36.3703 44.652C37.9237 44.4721 39.3448 43.6905 40.3286 42.4749C41.3474 41.248 41.8448 39.6706 41.714 38.0811C41.6349 37.293 41.401 36.5284 41.0256 35.8309C40.6503 35.1334 40.1409 34.5169 39.5267 34.0167C38.9126 33.5166 38.2057 33.1426 37.4467 32.9163C36.6877 32.6899 35.8914 32.6157 35.1036 32.6979ZM45.9494 66.2645C46.0123 67.0521 46.235 67.8187 46.6039 68.5175C46.9727 69.2162 47.4799 69.8325 48.0948 70.3288C48.7096 70.8251 49.4191 71.191 50.18 71.4042C50.9408 71.6174 51.737 71.6734 52.5202 71.5687C54.0685 71.3729 55.484 70.5943 56.4785 69.3916C57.4677 68.1367 57.9356 66.549 57.7849 64.9583C57.5862 63.3714 56.7757 61.9247 55.5262 60.9266C54.2766 59.9284 52.6868 59.4576 51.0953 59.6145C50.3042 59.6875 49.5361 59.9196 48.8369 60.2969C48.1378 60.6741 47.5221 61.1887 47.0268 61.8098C46.5314 62.4308 46.1665 63.1455 45.9542 63.911C45.7419 64.6766 45.6865 65.477 45.7911 66.2645H45.9494ZM49.9077 51.4999C49.7807 50.3111 49.3134 49.184 48.5619 48.2541C47.7962 47.3454 46.7785 46.6838 45.6373 46.3527C44.4961 46.0216 43.2825 46.0359 42.1494 46.3937C41.0172 46.7436 40.0125 47.4179 39.2598 48.3332C38.5118 49.2653 38.0565 50.3979 37.9508 51.5882C37.8451 52.7786 38.094 53.9736 38.666 55.0228C39.2339 56.0713 40.1024 56.9259 41.1598 57.4769C42.2211 58.0203 43.4184 58.2405 44.6035 58.1103C45.3853 58.0361 46.1416 57.793 46.8202 57.3978C47.5282 57.0331 48.1493 56.52 48.6411 55.8936C49.1347 55.288 49.4984 54.5874 49.7098 53.8353C49.8615 53.061 49.8344 52.2623 49.6307 51.4999H49.9077Z" fill="#9A684B"/>
<path d="M38.4284 27.4334C43.9305 26.3647 47.8492 27.4334 50.3034 32.5397C50.6918 33.3441 51.2829 34.0335 52.0186 34.5401C52.7543 35.0468 53.6092 35.3533 54.4992 35.4293C56.248 35.6687 57.9194 36.3026 59.387 37.2832C60.8546 38.2639 62.0799 39.5656 62.9701 41.0897C63.4235 42.0396 64.1276 42.8476 65.0065 43.4266C65.8855 44.0056 66.9058 44.3335 67.9575 44.3751C69.593 44.4174 71.1752 44.9653 72.4865 45.9435C73.7978 46.9217 74.7739 48.282 75.2805 49.8376C75.724 50.9089 76.0557 52.0231 76.2701 53.1626C76.6659 56.0917 76.9034 59.0605 77.1805 61.9897C72.7286 63.7893 67.8691 64.3368 63.1284 63.573C63.0305 62.9331 62.8985 62.2989 62.7326 61.6731C61.8585 58.8971 59.9237 56.5783 57.3492 55.221C56.8003 54.9194 56.3465 54.4706 56.0388 53.9252C55.7311 53.3797 55.5817 52.7592 55.6076 52.1335C55.5518 49.9764 54.93 47.8719 53.8045 46.0309C52.6791 44.1898 51.0895 42.6769 49.1951 41.6438C48.7626 41.4626 48.391 41.1612 48.1244 40.7754C47.8579 40.3896 47.7074 39.9355 47.6909 39.4668C47.7429 36.857 46.9336 34.3027 45.3881 32.199C43.8426 30.0954 41.647 28.5596 39.1409 27.8293L38.4284 27.4334Z" fill="#9A684B"/>
<path fill-rule="evenodd" clip-rule="evenodd" d="M4 51.5C4 25.2665 25.2665 4 51.5 4C77.7335 4 99 25.2665 99 51.5C99 77.7335 77.7335 99 51.5 99C25.2665 99 4 77.7335 4 51.5ZM19.3691 79.9087C12.675 72.3433 8.61165 62.3962 8.61165 51.5C8.61165 27.8134 27.8134 8.61165 51.5 8.61165C62.3962 8.61165 72.3433 12.675 79.9088 19.3691L63.5464 35.7314C64.7021 36.7518 65.7062 37.937 66.5248 39.2515C66.5274 39.2567 66.53 39.2619 66.5326 39.2671L83.1944 22.6053C90.1479 30.2283 94.3883 40.3689 94.3883 51.5C94.3883 75.1866 75.1866 94.3883 51.5 94.3883C40.3689 94.3883 30.2283 90.1479 22.6053 83.1943L37.258 68.5417C37.2527 68.4139 37.2501 68.2858 37.2501 68.1573C37.2884 67.6976 37.2415 67.2349 37.1117 66.7922C36.7742 66.1955 36.2626 65.7161 35.6452 65.418C35.2875 65.1839 34.941 64.9347 34.6065 64.6713L19.3691 79.9087Z" fill="#9A684B"/>
</svg>
