<svg width="103" height="103" viewBox="0 0 103 103" fill="none" xmlns="http://www.w3.org/2000/svg">
<rect width="103" height="103" rx="51.5" fill="white"/>
<path fill-rule="evenodd" clip-rule="evenodd" d="M4 52.5C4 26.2665 25.2665 5 51.5 5C77.7335 5 99 26.2665 99 52.5C99 78.7335 77.7335 100 51.5 100C25.2665 100 4 78.7335 4 52.5ZM19.3691 80.9087C12.675 73.3433 8.61165 63.3962 8.61165 52.5C8.61165 28.8134 27.8134 9.61165 51.5 9.61165C62.3962 9.61165 72.3433 13.675 79.9088 20.3691L54 46C54.7646 46.4148 55.5207 46.8324 56.2673 47.2453C56.9125 47.6032 57.5578 47.961 58.2078 48.3141L83.1944 23.6053C90.1479 31.2283 94.3884 41.3689 94.3884 52.5C94.3884 76.1866 75.1866 95.3884 51.5 95.3884C40.3689 95.3884 30.2283 91.1479 22.6053 84.1943L46.8627 59.937C45.3879 59.2123 43.8907 58.5344 42.3734 57.9044L19.3691 80.9087Z" fill="#9A684B"/>
<path d="M71.9525 70.1035C75.4825 69.6035 78.6625 68.2135 80.7725 65.0035C81.1818 64.3383 81.5331 63.639 81.8225 62.9135C81.8971 62.7665 81.9342 62.6033 81.9305 62.4384C81.9268 62.2736 81.8824 62.1122 81.8012 61.9687C81.72 61.8251 81.6046 61.7039 81.4653 61.6158C81.3259 61.5277 81.167 61.4753 81.0025 61.4635C79.4725 61.1735 77.9325 60.9435 76.3925 60.6835L70.3925 59.6835L63.2025 58.4735C62.1125 58.2935 61.0225 58.1335 59.9525 57.8735C59.4909 57.7149 59.0635 57.4706 58.6925 57.1535C55.8925 55.0035 53.2025 52.7035 50.3025 50.6935C43.8331 46.0887 36.6788 42.5318 29.1025 40.1535C28.7266 40.0081 28.3189 39.965 27.9209 40.0285C27.5229 40.0919 27.1489 40.2597 26.8368 40.5148C26.5248 40.7699 26.286 41.1032 26.1447 41.4806C26.0034 41.8581 25.9647 42.2662 26.0325 42.6635C26.0962 43.0579 26.2726 43.4254 26.5406 43.7218C26.8085 44.0181 27.1565 44.2305 27.5425 44.3335C32.6921 46.0224 37.6899 48.1433 42.4825 50.6735C47.1543 53.1243 51.5783 56.0211 55.6925 59.3235C57.0983 60.4608 58.221 61.9088 58.9725 63.5535C59.9515 65.5094 61.4993 67.1235 63.4125 68.1835C66.0016 69.667 68.9776 70.3361 71.9525 70.1035Z" fill="#9A694C"/>
<path d="M80.1925 58.8835C79.7425 57.8835 79.4225 56.8835 78.9825 56.0735C77.9825 54.2135 77.0325 52.3635 75.9825 50.5635C75.4072 49.6487 74.7368 48.7973 73.9825 48.0235C73.5673 47.5528 72.9902 47.2554 72.3659 47.1906C71.7415 47.1257 71.1156 47.2981 70.6125 47.6735C67.4925 49.5335 65.1225 52.1935 62.7625 54.8735C62.6621 54.9719 62.5747 55.0828 62.5025 55.2035C62.4125 55.3535 62.2525 55.5535 62.3025 55.6635C62.4196 55.8008 62.5836 55.8899 62.7625 55.9135C65.2325 56.3435 67.7025 56.7835 70.1725 57.1935C72.6425 57.6035 74.8725 57.9535 77.1725 58.3335C78.1125 58.4935 79.0625 58.6735 80.1925 58.8835ZM70.6225 51.4935C70.592 51.1315 70.7066 50.7722 70.941 50.4947C71.1755 50.2171 71.5105 50.044 71.8725 50.0135C72.0464 50.004 72.2204 50.0301 72.3839 50.0901C72.5473 50.1502 72.6968 50.2429 72.8232 50.3627C72.9496 50.4826 73.0502 50.6269 73.1188 50.7869C73.1875 50.947 73.2228 51.1194 73.2225 51.2935C73.2377 51.4632 73.2176 51.6342 73.1632 51.7957C73.1089 51.9572 73.0217 52.1056 72.907 52.2316C72.7923 52.3576 72.6526 52.4584 72.4969 52.5275C72.3412 52.5967 72.1729 52.6328 72.0025 52.6335C71.8357 52.6574 71.6657 52.6461 71.5035 52.6005C71.3413 52.5549 71.1904 52.4759 71.0605 52.3686C70.9306 52.2613 70.8245 52.128 70.7491 51.9773C70.6737 51.8266 70.6306 51.6618 70.6225 51.4935ZM68.8825 54.6135C68.7499 54.6334 68.6151 54.6334 68.4825 54.6135C68.3573 54.5718 68.2393 54.5111 68.1325 54.4335C68.0305 54.3467 67.9457 54.2416 67.8825 54.1235C67.8174 54.0062 67.7766 53.8769 67.7625 53.7435C67.7602 53.4847 67.8461 53.2327 68.0061 53.0292C68.166 52.8256 68.3904 52.6826 68.6425 52.6235C68.9258 52.607 69.2042 52.7027 69.4175 52.8898C69.6308 53.0769 69.762 53.3405 69.7825 53.6235C69.7983 53.7501 69.7867 53.8786 69.7485 54.0004C69.7102 54.1221 69.6462 54.2342 69.5609 54.3291C69.4755 54.4239 69.3708 54.4993 69.2537 54.5501C69.1367 54.6009 69.0101 54.6259 68.8825 54.6235V54.6135Z" fill="#9A694C"/>
</svg>
