<svg width="200" height="75" viewBox="0 0 200 75" fill="none" xmlns="http://www.w3.org/2000/svg">
<g clip-path="url(#clip0_650_394)">
<path d="M24.7962 74.4829C24.2009 74.3648 23.6056 74.2615 23.0152 74.1286C21.6699 73.8766 20.4026 73.3121 19.3154 72.4805C17.7558 71.2062 17.6476 68.5445 19.035 67.0685C20.2404 65.7746 21.8148 65.2383 23.4629 64.8152C24.0686 64.6214 24.6941 64.496 25.3276 64.4413C25.5982 64.4413 25.7901 64.3035 25.7606 63.9493C25.6326 62.4733 25.5244 61.0466 25.4063 59.5952C25.4014 59.5165 25.4014 59.4377 25.4063 59.359C25.4949 57.5731 25.2292 55.797 25.2981 54.0111C25.2981 53.5781 25.1751 53.1697 25.1603 52.7417C25.1456 52.3137 24.8258 52.4957 24.6683 52.5302C24.0506 52.6309 23.4238 52.6655 22.7988 52.6335C19.0613 52.668 15.3445 52.0759 11.8027 50.882C10.002 50.2768 8.14229 49.8537 6.44983 48.9583C5.07717 48.2301 4.19651 47.1625 4.28998 45.5586C4.33918 44.7862 4.43266 43.9055 5.36253 43.5513C5.62819 43.457 5.91773 43.4543 6.18515 43.5434C6.45257 43.6325 6.68253 43.8085 6.83851 44.0433C7.5584 45.1286 8.53524 46.0192 9.68223 46.6361C11.6945 47.8907 13.9822 48.3531 16.2503 48.8304C19.586 49.5339 22.9857 49.3617 26.3608 49.2928C29.7934 49.1466 33.1953 48.5815 36.4909 47.6102C39.5183 46.8175 42.4912 45.8299 45.3911 44.6534C45.957 44.4029 46.568 44.2707 47.1868 44.2647C47.36 44.2872 47.5263 44.3467 47.6745 44.4391C47.8227 44.5314 47.9494 44.6545 48.0459 44.8C48.1425 44.9456 48.2067 45.1101 48.2342 45.2826C48.2617 45.455 48.2518 45.6314 48.2053 45.7997C47.9815 46.3453 47.6326 46.8306 47.1868 47.2166C44.7908 49.4011 41.8536 50.267 38.7836 50.882C36.8501 51.2657 34.9018 51.5216 32.9387 51.7135C31.4037 51.8611 29.8736 52.1021 28.3386 52.2842C28.0729 52.3137 28.0877 52.4564 28.0778 52.6384C27.9942 54.7343 28.1516 56.8302 28.2205 58.9261C28.2697 60.402 28.5256 61.8485 28.6633 63.3146C28.7027 63.723 28.8503 63.9149 29.2832 63.8607C30.6629 63.7137 32.0572 63.9237 33.3323 64.4708C34.5475 64.9628 35.5906 65.686 35.9694 66.98C36.1824 67.679 36.2138 68.4207 36.0606 69.1352C35.9074 69.8497 35.5746 70.5134 35.0937 71.0635C33.5193 72.9921 31.3791 73.8384 29.0028 74.2713C28.619 74.3402 28.1959 74.2221 27.8466 74.4829H24.7962ZM29.1701 65.627L29.1159 65.3663C29.1159 65.3663 29.0717 65.3662 29.0717 65.4007C29.0531 65.4439 29.0519 65.4926 29.0684 65.5366C29.0849 65.5806 29.1178 65.6165 29.1602 65.6368C29.2098 66.1813 29.317 66.7189 29.48 67.2407C29.5341 67.5163 29.6473 67.8508 29.3521 68.0575C28.3681 68.7315 26.3706 67.8853 26.1148 66.6946C26.0491 66.3697 26.0031 66.0411 25.977 65.7106C25.977 65.5237 25.977 65.3318 25.731 65.3023C25.485 65.2728 25.4408 65.4647 25.3719 65.6664C25.1554 66.3256 25.5588 66.8225 25.7753 67.3736C25.9126 67.7412 26.1524 68.0617 26.4663 68.2972C26.7803 68.5326 27.1551 68.6731 27.5465 68.702C28.0877 68.7758 28.6092 68.5691 29.1651 68.6478C29.4849 68.697 29.726 68.3133 29.7457 67.9492C29.8196 67.4041 29.7708 66.8495 29.603 66.3256C29.5046 66.0796 29.5243 65.7254 29.1553 65.6221L29.1701 65.627ZM30.9216 66.2076C31.0495 66.7881 30.8478 67.3933 31.0101 67.9738C31.0822 67.3827 31.0523 66.7836 30.9216 66.2026V66.2076ZM26.9364 50.2768C27.1217 50.3575 27.3235 50.3934 27.5252 50.3814C27.727 50.3694 27.9231 50.31 28.0975 50.2079C27.7105 50.1444 27.3142 50.1662 26.9364 50.2719V50.2768ZM32.7567 66.2666C32.7133 66.4331 32.7058 66.6069 32.7346 66.7766C32.7635 66.9462 32.828 67.1078 32.924 67.2506C32.8403 66.9455 33.0913 66.5815 32.7567 66.2617V66.2666Z" fill="#A37153"/>
<path d="M200.005 41.6667C199.759 42.4096 199.739 43.1968 199.552 43.9545C198.902 46.7251 197.344 49.1984 195.125 50.9801C194.008 51.9288 192.714 52.6465 191.318 53.0915C189.922 53.5366 188.452 53.7002 186.992 53.5729C185.683 53.4518 184.416 53.0436 183.282 52.3774C182.849 52.1314 182.854 51.7181 182.889 51.236C181.953 51.9685 180.918 52.5633 179.814 53.0022C177.113 53.9862 174.549 53.7894 172.163 52.1215C172.001 52.0219 171.869 51.8813 171.778 51.714C171.688 51.5468 171.643 51.3587 171.649 51.1687C171.654 50.9787 171.71 50.7934 171.81 50.6317C171.909 50.4699 172.05 50.3372 172.217 50.247C172.386 50.1686 172.575 50.144 172.758 50.1766C172.941 50.2091 173.109 50.2973 173.241 50.4291C174.262 51.205 175.505 51.6326 176.788 51.6492C178.085 51.6596 179.355 51.2752 180.429 50.5472C182.021 49.559 183.341 48.1871 184.266 46.5571C184.776 45.5208 185.108 44.4067 185.25 43.2608C185.477 42.138 185.599 40.9966 185.614 39.8512C185.632 39.6619 185.665 39.4743 185.713 39.2904C185.265 39.8503 184.755 40.3571 184.192 40.8008C182.889 41.7503 180.222 41.6372 178.815 40.5991C177.408 39.561 176.754 38.1391 176.286 36.5598C175.876 34.9299 175.623 33.2642 175.533 31.5858C175.405 30.2672 175.617 28.9782 175.588 27.6744C175.578 27.5235 175.602 27.3724 175.657 27.2314C175.711 27.0904 175.796 26.9628 175.904 26.8573C176.012 26.7518 176.142 26.6709 176.284 26.62C176.427 26.5691 176.578 26.5495 176.729 26.5625C177.29 26.597 177.659 27.0102 177.565 27.7236C177.422 29.0306 177.394 30.3477 177.482 31.6596C177.511 33.6936 177.947 35.7011 178.766 37.5635C178.989 38.0925 179.349 38.553 179.808 38.8986C180.266 39.2441 180.808 39.4624 181.378 39.5314C181.857 39.5679 182.336 39.4736 182.765 39.2587C183.194 39.0438 183.556 38.7163 183.814 38.3113C184.689 37.1354 184.999 35.7529 185.26 34.3458C185.649 32.245 185.442 30.1295 185.486 28.0188C185.486 27.0348 186.018 26.6708 186.903 27.0348C187.14 27.1332 187.208 27.0988 187.346 26.902C187.446 26.7555 187.59 26.6453 187.758 26.5876C187.926 26.53 188.107 26.5281 188.276 26.5822C188.488 26.6177 188.684 26.7166 188.839 26.8659C188.993 27.0153 189.099 27.208 189.142 27.4186C189.29 28.3534 189.368 29.298 189.511 30.2328C189.847 32.6725 190.521 35.0536 191.513 37.3076C191.858 38.0326 192.363 38.6701 192.989 39.1723C193.855 39.9004 195.1 39.4281 195.769 38.5917C196.571 37.6078 196.812 36.3827 197.063 35.1773C197.511 33.0224 197.422 30.8281 197.422 28.6436C197.422 28.1517 197.201 27.6597 197.393 27.1677C197.457 26.9673 197.593 26.7976 197.774 26.6907C197.956 26.5837 198.17 26.5469 198.377 26.5871C198.594 26.5799 198.806 26.6525 198.972 26.7913C199.139 26.93 199.249 27.1253 199.282 27.3399C199.356 27.878 199.395 28.4203 199.4 28.9634C199.448 30.9067 199.612 32.8453 199.892 34.769C199.941 35.1822 199.749 35.6201 200.01 36.0088L200.005 41.6667ZM183.73 50.4635C184.016 50.5485 184.297 50.6504 184.571 50.7686C185.886 51.4643 187.377 51.7537 188.857 51.6C190.148 51.45 191.396 51.0437 192.528 50.405C193.66 49.7663 194.653 48.9081 195.449 47.8806C197.329 45.6223 197.909 42.8672 198.096 40.0087C198.126 39.5659 198.096 39.1182 198.096 38.5327C197.783 39.0863 197.43 39.6159 197.038 40.1169C196.752 40.4802 196.395 40.782 195.989 41.0043C195.584 41.2266 195.137 41.3649 194.677 41.4109C192.797 41.6323 191.454 40.7516 190.411 39.2658C189.634 38.0938 189.042 36.8095 188.655 35.4577C188.173 33.8773 187.788 32.2687 187.504 30.6411C187.469 31.6251 187.563 32.6091 187.563 33.5931C187.563 36.6631 187.774 39.743 187.351 42.8081C187.213 43.8758 186.976 44.9283 186.643 45.952C186.025 47.6568 185.03 49.1993 183.73 50.4635Z" fill="#A37153"/>
<path d="M0 31.163C0.243208 30.2058 0.638557 29.2938 1.17095 28.462C1.67162 27.7482 2.33343 27.1624 3.10274 26.7521C3.87204 26.3418 4.72719 26.1185 5.59888 26.1004C6.53421 26.0259 7.47495 26.0572 8.40324 26.1939C9.15599 26.3169 9.66766 26.7695 9.56926 27.355C9.44626 28.1028 8.89031 28.3734 8.09328 28.2307C6.45987 27.9503 4.83137 27.8765 3.45379 29.0425C2.65367 29.7292 2.1554 30.7028 2.06637 31.7534C1.92167 32.8059 2.02418 33.8777 2.36577 34.8837C2.70737 35.8897 3.27867 36.8023 4.03434 37.5491C4.69265 38.2363 5.53751 38.7161 6.46497 38.9294C7.39242 39.1427 8.362 39.0802 9.25439 38.7495C9.89994 38.5677 10.5186 38.3013 11.0944 37.9574C11.2803 37.829 11.5008 37.7602 11.7266 37.7602C11.9525 37.7602 12.173 37.829 12.3589 37.9574C12.5223 38.0827 12.6466 38.252 12.7172 38.4455C12.7878 38.6389 12.8017 38.8485 12.7574 39.0496C12.7379 39.2162 12.6723 39.3739 12.568 39.5052C12.4637 39.6364 12.3248 39.736 12.167 39.7926C10.7408 40.6107 9.13195 41.0574 7.48813 41.0914C6.29273 41.1122 5.11251 40.8215 4.06355 40.2478C3.01458 39.6741 2.133 38.8373 1.5055 37.8197C0.763591 36.7601 0.284629 35.5391 0.108239 34.2576C0.108239 34.2134 0.0393594 34.1789 0 34.1396V31.163Z" fill="#A37153"/>
<path d="M29.0472 5.51524C30.6278 3.30598 32.7147 1.50757 35.1332 0.270598C35.2759 0.196799 35.4726 0.191877 35.5415 0H36.0335C36.852 1.12632 37.4053 2.42304 37.6522 3.79326C37.7261 4.56994 37.7458 5.35082 37.7112 6.13023C37.4062 9.04775 36.2844 11.5422 33.9327 13.333C33.1293 13.9699 32.1972 14.4246 31.2007 14.6659C30.2043 14.9071 29.1674 14.9291 28.1616 14.7303C27.9982 14.7238 27.8422 14.6602 27.7208 14.5505C27.5994 14.4408 27.5204 14.292 27.4975 14.13C26.9653 11.8399 27.2022 9.43828 28.1715 7.29626C28.4021 6.93563 28.5685 6.53779 28.6635 6.12039C28.8061 6.12039 28.8209 6.00724 28.8012 5.88916C28.8898 5.88916 28.9144 5.83011 28.9095 5.75139C29.0472 5.74155 29.062 5.63824 29.0472 5.51524ZM37.17 4.80185L37.0273 4.90025C36.5493 5.19958 36.0414 5.44855 35.512 5.64316C35.1184 5.7514 34.7199 5.85963 34.3361 5.99247C34.1985 6.04477 34.083 6.14261 34.0087 6.26971C33.9344 6.39682 33.9058 6.54552 33.9278 6.6911C33.9918 6.97154 34.3165 6.80426 34.5231 6.75506C35.5816 6.51672 36.506 5.87633 37.1011 4.96913L37.2045 4.83137L37.3127 4.70837H37.357C37.357 4.70837 37.357 4.70837 37.357 4.66901L37.3078 4.72313L37.17 4.80185ZM36.5354 9.22979C35.8527 9.58613 35.1193 9.83505 34.3607 9.96778C33.7003 10.0545 33.0335 10.0825 32.3682 10.0514C32.2109 10.0398 32.0548 10.0858 31.9289 10.1809C31.8031 10.2759 31.7161 10.4135 31.6843 10.568C31.5711 10.9124 31.9647 10.8484 32.132 10.9419C32.3785 11.0619 32.6354 11.1591 32.8995 11.2322C34.7593 11.798 35.8515 11.2224 36.5354 9.22979ZM30.3854 11.3355C30.5137 11.2477 30.6142 11.1252 30.6752 10.9822C30.7362 10.8393 30.7551 10.682 30.7298 10.5286C30.656 8.75747 29.9918 7.0847 29.982 5.1856C29.49 5.70712 29.2047 6.16959 29.2932 6.78458C29.367 7.34545 29.3523 7.92109 29.4359 8.47704C29.5274 9.48224 29.8435 10.4541 30.3608 11.3208L30.3854 11.3355ZM32.2403 8.64924C32.4099 8.48324 32.5417 8.28257 32.6266 8.06094C32.7115 7.83932 32.7475 7.60198 32.7323 7.36514C32.5896 5.84488 32.2944 4.33938 32.2403 2.80928C31.4531 3.01592 31.6695 3.63583 31.6007 4.13274C31.4517 5.66075 31.6623 7.20242 32.2157 8.63447L32.2403 8.64924ZM37.1602 7.33069C36.7211 7.62865 36.2425 7.8638 35.7383 8.02932C34.9069 8.2704 34.0803 8.52132 33.239 8.69352C32.747 8.80175 32.5699 9.12155 32.4469 9.57418C33.8196 9.6037 35.1233 9.52498 36.2795 8.75255C36.7371 8.41308 37.1995 8.049 37.1257 7.31593L37.1602 7.33069ZM31.0496 3.97038C30.7692 4.25082 30.4396 4.37382 30.4494 4.91993C30.4888 6.71079 31.0447 8.41308 31.2366 10.3319C31.4777 9.81526 32.0041 9.58894 31.8171 9.01823C31.2148 7.40109 30.9421 5.67976 31.0152 3.95562L31.0496 3.97038ZM33.2242 6.92234C33.5124 6.50156 33.7055 6.02309 33.79 5.52016C33.8835 4.3935 33.6277 3.29143 33.544 2.17953C33.544 1.91385 33.3866 1.8499 33.1406 1.99749C32.9886 2.07093 32.8657 2.19332 32.7917 2.34501C32.7176 2.4967 32.6967 2.66887 32.7323 2.83388C32.8159 4.14258 32.9733 5.4562 33.1898 6.90266L33.2242 6.92234ZM27.9304 9.79557C27.5565 11.1964 27.5923 12.6752 28.0337 14.0562C28.2945 13.8545 28.4568 13.5642 28.6831 13.3724C28.8593 13.2515 28.9815 13.0668 29.0237 12.8574C29.066 12.648 29.025 12.4303 28.9095 12.2506C28.5064 11.454 28.1675 10.6264 27.896 9.7759L27.9304 9.79557ZM29.5195 12.4081C29.9181 12.0833 30.1394 11.8078 29.7852 11.3208C29.5197 10.9058 29.3329 10.4455 29.2342 9.96286C29.0128 9.05702 28.8582 8.13616 28.7717 7.2077C28.5306 7.82761 28.1272 8.32944 28.3338 9.13139C28.6206 10.2489 29.0059 11.3389 29.4851 12.3884L29.5195 12.4081ZM34.7101 11.9161C33.7476 12.0049 32.7799 11.8171 31.9205 11.3749C31.3891 11.0846 31.1136 11.2027 30.8086 11.6701C30.5822 12.0145 30.6511 12.1079 31.0201 12.2063C32.0188 12.4858 33.066 12.5463 34.0902 12.3835C34.2234 12.3712 34.3501 12.3198 34.4543 12.2358C34.5584 12.1518 34.6355 12.0388 34.6756 11.9111L34.7101 11.9161ZM37.4209 5.54968C37.2241 5.73172 37.0765 5.87932 36.929 6.04167C36.1516 6.73538 35.3054 7.33561 34.223 7.32085C33.5785 7.32085 33.4063 7.63573 33.239 8.18184L34.5034 7.88172C35.3194 7.74867 36.0966 7.43978 36.7814 6.97646C37.0136 6.8255 37.1954 6.60847 37.3032 6.35331C37.4111 6.09815 37.4401 5.81654 37.3865 5.54476L37.4209 5.54968ZM34.528 5.43652C35.3094 5.29802 36.0484 4.98154 36.6879 4.51158C37.4259 3.95071 37.4209 3.94086 37.0273 2.9618C36.4658 3.62408 35.7763 4.16625 35.0003 4.55585C34.8518 4.65044 34.7282 4.77939 34.64 4.93182C34.5518 5.08425 34.5016 5.25567 34.4936 5.4316L34.528 5.43652ZM33.5834 12.9837C32.6346 13.0199 31.6857 12.9121 30.7692 12.6639C30.0558 12.4523 29.9476 12.5065 29.5687 13.2543C30.2117 13.5294 30.9108 13.6484 31.6086 13.6013C32.3064 13.5543 32.9831 13.3427 33.5834 12.9837ZM34.2968 1.20046C34.0114 1.39726 33.5293 1.42678 33.9524 1.90401C34.0164 1.97289 33.9524 2.13033 33.9918 2.24841C34.0705 2.92736 34.1541 3.60631 34.2378 4.31478C34.9659 3.28159 34.5674 2.26317 34.3066 1.20046H34.2968ZM36.6042 1.90893C36.2008 2.642 35.0299 2.71088 35.0889 3.87691C35.6326 3.57046 36.1296 3.18774 36.5649 2.7404C36.8945 2.4206 36.8798 2.24841 36.6141 1.90893H36.6042ZM28.4322 14.3613C29.2571 14.4946 30.1022 14.422 30.8922 14.1497C30.4864 14.0752 30.0891 13.9598 29.7065 13.8053C29.0866 13.4954 28.7717 13.8102 28.4421 14.3613H28.4322ZM35.8121 0.708471C35.6744 1.19126 35.5789 1.68511 35.5268 2.18445C36.5354 1.5055 36.5354 1.3579 35.8466 0.708471H35.8121ZM34.3361 1.10698C34.8281 1.25458 34.8773 1.59898 34.9807 1.95813C35.0518 1.81141 35.103 1.65589 35.1332 1.49566C35.1332 1.24966 35.4087 0.929868 35.207 0.782271C35.0053 0.634673 34.7888 0.964306 34.3706 1.10698H34.3361Z" fill="#186F3B"/>
<path d="M148.335 39.4629C148.596 41.4604 148.827 43.4628 149.123 45.4603C149.373 47.2364 149.654 49.0075 149.939 50.7738C150.111 51.8267 149.767 52.4613 148.955 52.5253C148.345 52.5745 148.089 52.4023 147.947 51.4773C147.619 49.3421 147.305 47.2101 147.007 45.0814C146.786 43.4923 146.613 41.8982 146.402 40.3091C146.18 38.6265 145.91 36.9488 145.708 35.2613C145.521 33.7853 145.398 32.2601 145.216 30.7595C145.034 29.2589 144.837 27.6157 144.631 26.0462C144.542 25.3378 144.759 24.895 145.28 24.8064C146.077 24.6687 146.535 24.9737 146.633 25.7609C146.81 27.1385 146.953 28.5259 147.125 29.9084C147.125 29.9822 147.125 30.0707 147.273 30.1003C147.935 28.9806 148.739 27.9505 149.664 27.0351C150.63 26.0083 151.953 25.39 153.361 25.3067C154.768 25.2235 156.155 25.6817 157.235 26.5874C158.161 27.2125 158.895 28.0829 159.355 29.1012C159.815 30.1195 159.982 31.2456 159.838 32.3536C159.633 33.7122 159.066 34.9904 158.195 36.0534C156.961 37.735 155.245 39.0014 153.275 39.6843C151.762 40.2222 150.102 40.1642 148.631 39.5219C148.522 39.4973 148.458 39.4038 148.335 39.4629ZM157.727 31.5172C157.769 31.0264 157.695 30.5326 157.511 30.0756C157.293 29.4554 156.922 28.8997 156.434 28.4594C155.946 28.0191 155.355 27.7081 154.715 27.555C154.076 27.4018 153.408 27.4114 152.773 27.5827C152.138 27.754 151.556 28.0817 151.081 28.5357C149.878 29.7175 148.916 31.1209 148.247 32.6685C147.676 33.8689 147.455 35.0399 148.173 36.2846C148.499 36.9568 149.052 37.4928 149.734 37.7986C150.415 38.1044 151.183 38.1606 151.902 37.9574C153.659 37.5103 155.217 36.4907 156.33 35.0595C157.176 34.0657 157.85 32.9489 157.727 31.5172Z" fill="#A37153"/>
<path d="M169.865 37.4457C169.476 38.4885 168.981 39.489 168.389 40.4321C167.027 42.3656 164.945 42.4001 163.209 41.0569C162.173 40.3009 161.468 39.175 161.241 37.9131C161.14 37.3207 161.076 36.7226 161.049 36.1223C160.95 34.2428 161.152 32.3634 161.172 30.484C161.129 30.088 161.047 29.6974 160.926 29.318C160.867 28.9736 160.768 28.5652 161.251 28.4226C161.733 28.2799 162.19 28.1618 162.584 28.5948C162.934 29.0407 163.098 29.6049 163.041 30.1691C163.041 32.3831 162.884 34.5971 162.923 36.811C162.938 37.5 163.156 38.1692 163.55 38.7346C163.944 39.3 164.496 39.7365 165.137 39.9893C165.441 40.1115 165.779 40.1217 166.09 40.018C166.401 39.9144 166.665 39.7037 166.835 39.4235C167.489 38.4472 167.925 37.3414 168.114 36.1813C168.459 34.6973 168.704 33.1916 168.847 31.6746C168.936 30.6316 169.059 29.5886 169.068 28.5357C169.059 28.4384 169.069 28.3401 169.099 28.2468C169.129 28.1536 169.177 28.0674 169.241 27.9933C169.305 27.9193 169.383 27.859 169.471 27.816C169.559 27.7731 169.655 27.7485 169.752 27.7436C170.215 27.6895 170.643 27.7141 170.844 28.27C171.086 28.9244 170.913 29.5935 170.938 30.238C171.038 32.0365 171.236 33.8283 171.528 35.6057C171.712 36.746 171.83 37.8958 171.883 39.0496C171.97 39.8453 172.016 40.6451 172.02 41.4456C171.878 43.4677 171.725 45.4996 170.712 47.32C169.998 48.7057 168.972 49.9068 167.716 50.8289C166.459 51.7509 165.006 52.3687 163.47 52.6335C162.366 52.8635 161.224 52.8283 160.137 52.5306C159.05 52.233 158.049 51.6814 157.216 50.9214C156.516 50.2903 155.912 49.5592 155.425 48.7517C155.29 48.5281 155.245 48.2609 155.301 48.0053C155.357 47.7498 155.509 47.5255 155.726 47.379C155.835 47.3101 155.957 47.2652 156.085 47.247C156.213 47.2289 156.343 47.238 156.467 47.2738C156.591 47.3095 156.707 47.3712 156.805 47.4546C156.904 47.5381 156.983 47.6414 157.039 47.7579C158.023 49.2732 159.253 50.4688 161.123 50.8033C162.352 51.0066 163.614 50.8351 164.744 50.3113C167.784 49.0026 169.393 46.6411 169.885 43.4234C170.062 42.4664 170.136 41.4934 170.106 40.5207C170.067 39.4875 169.954 38.4691 169.865 37.4457Z" fill="#A37153"/>
<path d="M135.175 40.6141C135.259 41.9671 135.451 43.3053 135.643 44.6485C135.835 45.9916 135.958 47.3347 136.135 48.6779C136.312 50.021 136.499 51.2707 136.695 52.5646C136.708 52.8249 136.63 53.0814 136.473 53.2899C136.317 53.4983 136.093 53.6455 135.839 53.706C135.254 53.8044 134.91 53.4994 134.826 52.8844C134.609 51.2559 134.334 49.6422 134.132 48.0137C133.95 46.6164 133.822 45.2093 133.64 43.8071C133.458 42.405 133.247 40.8995 133.065 39.4432C132.883 37.9869 132.75 36.6388 132.573 35.2366C132.361 33.554 132.081 31.8714 131.918 30.1839C131.771 29.3243 131.672 28.457 131.623 27.5861C131.636 27.4199 131.695 27.2605 131.794 27.1265C131.894 26.9924 132.029 26.8891 132.184 26.8285C132.328 26.7266 132.5 26.6719 132.676 26.6719C132.852 26.6719 133.024 26.7266 133.168 26.8285C133.281 26.9345 133.369 27.0638 133.427 27.2074C133.484 27.351 133.51 27.5054 133.502 27.6599C133.665 28.7079 133.758 29.7706 133.876 30.8284C133.876 30.9612 133.852 31.1334 134.004 31.1875C134.157 31.2417 134.186 31.0547 134.26 30.9563C135.102 29.7169 136.208 28.6786 137.497 27.9158C139.426 26.8826 141.817 27.8026 142.963 29.3573C143.737 30.4672 144.195 31.7664 144.287 33.1161C144.524 35.3433 143.905 37.5773 142.555 39.3644C141.785 40.4616 140.613 41.2104 139.294 41.4481C137.974 41.6858 136.614 41.3931 135.51 40.6338C135.429 40.5824 135.343 40.5396 135.254 40.5059L135.097 40.3878C135.047 40.5059 135.077 40.5698 135.175 40.6141ZM142.516 34.1198C142.516 32.4175 142.107 31.1039 140.932 30.1199C140.233 29.5344 139.5 29.1704 138.56 29.5886C138.103 29.7894 137.681 30.0617 137.31 30.3954C136.336 31.3655 135.456 32.4265 134.683 33.5639C134.535 33.7383 134.433 33.9481 134.389 34.173C134.345 34.3979 134.36 34.6304 134.432 34.848C134.496 35.0792 134.58 35.1825 134.787 35.03C135.206 34.7954 135.671 34.6512 136.149 34.6069C136.364 34.5292 136.597 34.5212 136.816 34.5839C137.035 34.6467 137.229 34.7769 137.37 34.9562C137.477 35.0948 137.542 35.2613 137.556 35.4359C137.571 35.6104 137.535 35.7855 137.453 35.9402C137.383 36.1126 137.259 36.2576 137.099 36.3534C136.939 36.4492 136.753 36.4906 136.568 36.4715C136.324 36.4437 136.077 36.4909 135.861 36.607C135.645 36.7231 135.469 36.9024 135.357 37.121C135.185 37.4752 135.431 37.8639 135.657 38.1837C135.91 38.5895 136.252 38.9319 136.657 39.1845C137.063 39.4372 137.521 39.5933 137.996 39.6408C138.472 39.6884 138.952 39.6261 139.399 39.4587C139.847 39.2914 140.25 39.0235 140.577 38.6757C141.794 37.4689 142.49 35.8335 142.516 34.1198Z" fill="#A37153"/>
<path d="M28.0487 31.1725C28.5769 30.5641 29.1438 29.9906 29.746 29.4554C31.0194 28.3312 32.3873 27.3189 33.8345 26.4297C34.4249 26.0705 34.8578 26.1591 35.2072 26.6412C35.2939 26.7465 35.3578 26.8686 35.3949 26.9999C35.4319 27.1312 35.4412 27.2688 35.4223 27.4039C35.4033 27.539 35.3565 27.6687 35.2847 27.7847C35.2129 27.9007 35.1178 28.0005 35.0054 28.0778C34.1395 28.7519 33.1949 29.3226 32.329 29.9966C31.3414 30.6937 30.4527 31.5212 29.687 32.4566C29.4951 32.7124 29.5788 32.7468 29.7706 32.9141C30.9859 33.9817 32.1617 35.0936 33.3819 36.1465C35.0445 37.6212 36.7943 38.9947 38.6216 40.2596C39.4826 40.8352 39.453 41.7011 38.8036 42.1291C38.628 42.2553 38.4172 42.3231 38.2009 42.3231C37.9847 42.3231 37.7739 42.2553 37.5982 42.1291C36.1223 41.0369 34.6118 39.9299 33.2097 38.7196C31.7337 37.4355 30.2577 36.1613 28.639 34.7837C28.8752 35.93 29.0622 36.9386 29.2983 37.9374C29.5345 38.9361 29.7903 39.9053 30.056 40.8893C30.1251 41.1229 30.0992 41.3742 29.9841 41.5889C29.8689 41.8035 29.6738 41.964 29.441 42.0357C28.767 42.2325 28.2799 42.0357 28.1028 41.4797C27.5737 39.7155 27.1418 37.9236 26.8088 36.1121C26.389 33.9834 26.002 31.8514 25.6477 29.7162C25.4067 28.2894 25.2394 26.8478 25.0278 25.4211C24.8507 24.2206 24.6539 23.0201 24.4669 21.8246C24.2603 20.4716 24.0586 19.1186 23.852 17.7657C23.7339 17.0227 23.6109 16.2897 23.4928 15.5418C23.3747 14.794 23.6994 14.2922 24.2898 14.2135C24.4342 14.1971 24.5803 14.2098 24.7197 14.2506C24.8591 14.2914 24.9889 14.3597 25.1016 14.4513C25.2143 14.5429 25.3076 14.6561 25.376 14.7842C25.4445 14.9123 25.4867 15.0528 25.5001 15.1975C25.8445 17.5246 26.2627 19.8369 26.5874 22.1641C26.9122 24.4912 27.2811 26.8921 27.6501 29.2537C27.7073 29.9067 27.8411 30.5507 28.0487 31.1725Z" fill="#A37153"/>
<path d="M104.524 31.8268C105.01 30.4723 105.672 29.1872 106.492 28.004C107.343 26.8675 108.371 26.036 109.852 25.8491C110.988 25.7162 112.489 26.6068 113.158 27.8171C113.742 29.0109 114.125 30.2923 114.295 31.6103C114.58 33.2979 114.649 35.0297 115.136 36.6778C115.276 37.4447 115.706 38.1282 116.336 38.5868C116.674 38.8011 117.078 38.8851 117.473 38.8229C117.657 38.8033 117.844 38.8297 118.016 38.9C118.188 38.9703 118.34 39.0821 118.458 39.2255C118.576 39.3689 118.656 39.5393 118.692 39.7215C118.728 39.9037 118.718 40.092 118.663 40.2694C118.626 40.411 118.546 40.538 118.436 40.6344C118.326 40.7308 118.189 40.7921 118.044 40.8106C117.286 40.9303 116.51 40.826 115.81 40.5105C115.111 40.1949 114.519 39.6819 114.108 39.0345C113.391 37.6735 112.937 36.1897 112.769 34.6607C112.479 32.919 112.312 31.1479 111.717 29.4652C111.584 28.9997 111.33 28.5782 110.979 28.2451C110.231 27.6301 109.591 27.7088 108.824 28.4173C107.771 29.4013 107.2 30.6854 106.664 31.9596C105.932 33.6941 105.382 35.4994 105.02 37.347C104.824 38.2786 104.728 39.2287 104.735 40.1808C104.76 41.1894 103.933 41.6913 103.102 41.2485C102.967 41.1736 102.859 41.0582 102.794 40.9186C102.729 40.7791 102.709 40.6225 102.738 40.4711C102.738 38.6999 102.762 36.9288 102.738 35.1576C102.711 31.7727 102.155 28.4128 101.089 25.1997C100.618 23.7949 99.9894 22.4481 99.215 21.185C98.846 20.5897 98.8706 19.9747 99.3134 19.709C99.4428 19.6058 99.5945 19.5342 99.7564 19.5C99.9183 19.4658 100.086 19.4699 100.246 19.5119C100.406 19.554 100.554 19.6328 100.678 19.7422C100.803 19.8516 100.9 19.9885 100.962 20.142C101.908 21.7739 102.674 23.5045 103.244 25.303C103.853 27.4378 104.281 29.6201 104.524 31.8268Z" fill="#A37153"/>
<path d="M70.0791 32.3536C70.5981 31.5251 71.1682 30.7298 71.7863 29.9723C72.9523 28.703 74.1331 28.0782 75.5599 28.5948C76.7112 29.0129 77.2819 30.0363 77.6902 31.1384C78.1822 32.5209 78.5168 33.987 79.2302 35.2908C79.6955 36.2565 80.3814 37.0991 81.2326 37.7507C81.3964 37.842 81.5356 37.9716 81.6384 38.1283C81.7412 38.2851 81.8046 38.4645 81.823 38.6511C81.823 39.1037 81.7639 39.5022 81.2768 39.699C81.0651 39.7953 80.8289 39.8243 80.6001 39.7821C80.3714 39.7398 80.1611 39.6284 79.9977 39.4629C78.2432 37.9523 76.9848 35.948 76.3864 33.7115C76.1418 32.7207 75.7434 31.7745 75.2057 30.9071C74.8711 30.4151 74.5759 30.3561 74.0987 30.6808C73.0163 31.4139 72.4308 32.5405 71.7961 33.6328C71.4442 34.2325 71.1335 34.8555 70.8663 35.4974C70.805 35.7035 70.6723 35.8811 70.492 35.9983C70.3117 36.1154 70.0955 36.1646 69.8823 36.137C69.6472 36.133 69.4197 36.0533 69.2336 35.9097C69.0475 35.7661 68.9126 35.5663 68.8491 35.34C68.608 34.6905 68.4506 34.0165 68.2292 33.372C67.9988 32.5768 67.6505 31.8206 67.196 31.1285C66.8713 30.6857 66.6155 30.6857 66.2661 31.0892C65.3215 32.1765 64.9476 33.4901 64.677 34.8627C64.5097 35.6991 64.6229 36.5946 64.308 37.3719C63.9341 38.3018 64.0128 39.2267 63.9735 40.1664C63.9194 40.4001 63.7869 40.6082 63.598 40.7559C63.4091 40.9037 63.1752 40.9821 62.9354 40.9782C62.8087 40.983 62.6824 40.9617 62.5645 40.9154C62.4465 40.8692 62.3393 40.799 62.2497 40.7094C62.1601 40.6198 62.0899 40.5126 62.0437 40.3946C61.9974 40.2767 61.9761 40.1504 61.9809 40.0237C61.9809 38.41 62.0399 36.7914 61.9809 35.1825C61.8727 33.0473 61.6808 30.9071 60.6919 28.9441C60.5098 28.5849 60.2835 28.2504 60.067 27.9109C59.9856 27.8024 59.9266 27.6788 59.8934 27.5473C59.8602 27.4158 59.8535 27.279 59.8737 27.1448C59.8938 27.0107 59.9404 26.8819 60.0108 26.7659C60.0811 26.65 60.1738 26.5492 60.2835 26.4693C60.3787 26.3874 60.4898 26.3261 60.6099 26.2892C60.7299 26.2523 60.8563 26.2406 60.9811 26.255C61.1058 26.2693 61.2263 26.3093 61.3349 26.3724C61.4434 26.4356 61.5377 26.5205 61.6119 26.6219C62.5959 27.6846 63.0288 29.0277 63.4077 30.3856C63.4815 30.6414 63.5159 30.9022 63.5946 31.2761C63.9636 30.7841 64.2539 30.2921 64.5786 29.8789C65.4642 28.8063 66.4236 28.4275 67.6388 28.8407C68.2682 29.1034 68.7806 29.586 69.0803 30.1986C69.4826 30.8827 69.8171 31.6045 70.0791 32.3536Z" fill="#A37153"/>
<path d="M122.113 24.9983C123.539 24.9441 124.573 25.7264 125.424 26.6858C126.742 28.1618 127.436 30.0313 128.233 31.8271C128.996 33.5442 129.596 35.3449 130.693 36.9045C130.98 37.3439 131.379 37.6989 131.849 37.9327C132.248 38.1295 132.622 38.3657 132.602 38.9167C132.577 39.7531 132.016 40.1123 131.229 39.7876C130.29 39.4072 129.49 38.7478 128.937 37.8983C128.75 37.6179 128.587 37.1751 128.336 37.116C128.085 37.057 127.869 37.5244 127.613 37.7261C126.305 38.8393 124.805 39.7032 123.185 40.2746C120.725 41.0471 119.126 39.6055 118.88 37.2833C118.679 35.399 119.525 33.9181 120.637 32.5208C121.728 31.205 123.016 30.065 124.455 29.1408C124.573 29.0621 124.686 29.0129 124.568 28.8407C123.967 27.9748 123.392 27.0499 122.196 26.9859C121.364 27.0074 120.572 27.3432 119.977 27.9256C119.819 28.0806 119.629 28.1988 119.419 28.272C119.21 28.3451 118.988 28.3713 118.767 28.3487C118.592 28.3338 118.425 28.2675 118.288 28.1581C118.15 28.0487 118.048 27.901 117.995 27.7337C117.929 27.5804 117.914 27.4098 117.953 27.2475C117.992 27.0852 118.083 26.9399 118.211 26.8334C119.26 25.7886 120.639 25.14 122.113 24.9983ZM120.784 36.4322C120.784 37.9623 121.399 38.6609 122.29 38.4641C122.902 38.3157 123.492 38.084 124.041 37.7753C125.066 37.1983 126.022 36.5068 126.89 35.7139C127.126 35.5121 127.466 35.3006 127.298 34.8676C126.806 33.6032 126.344 32.324 125.758 31.094C125.616 30.789 125.527 30.7792 125.266 30.9809C124.011 31.9382 122.877 33.0433 121.886 34.2723C121.281 35.0054 120.799 35.7975 120.784 36.4322Z" fill="#A37153"/>
<path d="M12.6299 36.0631C12.6643 33.4211 13.7615 32.4961 15.631 31.7631C16.7004 31.3889 17.8 31.1075 18.9176 30.9218C19.1143 30.8824 19.38 30.8775 19.4587 30.6807C19.5375 30.4839 19.2669 30.3314 19.1389 30.1887C18.0762 28.8751 16.5363 28.3634 15.0554 27.7533C14.6168 27.6038 14.2037 27.3881 13.8303 27.1137C13.6284 26.9593 13.4941 26.7326 13.4556 26.4813C13.4171 26.23 13.4773 25.9735 13.6237 25.7657C13.7622 25.5542 13.9748 25.4022 14.2196 25.3394C14.4645 25.2766 14.724 25.3076 14.9472 25.4262C16.0148 25.9969 17.1808 26.3511 18.2632 26.9022C20.1503 27.8572 21.6007 29.4977 22.3172 31.4876C22.7748 32.688 23.1388 33.9475 23.6505 35.1037C24.0806 36.2728 24.8985 37.2591 25.9678 37.8982C26.1792 38.0475 26.3291 38.2685 26.3898 38.5201C26.4504 38.7717 26.4176 39.0368 26.2974 39.266C26.1787 39.4918 25.9768 39.6626 25.7345 39.7425C25.4922 39.8224 25.2283 39.805 24.9986 39.694C23.8768 39.202 23.1487 38.2475 22.4697 37.2635C22.1893 36.8601 22.0466 36.8552 21.7416 37.2635C21.0911 38.092 20.3427 38.8387 19.5129 39.4874C18.2189 40.5058 15.8426 40.3188 14.5437 39.4037C13.9841 39.0371 13.519 38.5433 13.1864 37.9628C12.8538 37.3822 12.6631 36.7313 12.6299 36.0631ZM17.107 38.1344C17.5151 38.1428 17.9157 38.0242 18.2534 37.7949C19.1143 37.2586 19.6605 36.3927 20.4132 35.7777C21.3037 35.0496 21.4415 34.3559 20.9052 33.4211C20.835 33.2613 20.7758 33.097 20.7281 32.9291C20.6494 32.7175 20.5657 32.5995 20.2705 32.6782C18.9735 32.9394 17.691 33.2678 16.4281 33.6622C15.8863 33.8188 15.4001 34.1259 15.0259 34.5478C14.7801 34.8502 14.639 35.2243 14.624 35.6137C14.6089 36.0032 14.7206 36.387 14.9422 36.7076C15.1477 37.1132 15.4555 37.4582 15.8351 37.7085C16.2148 37.9587 16.6532 38.1055 17.107 38.1344Z" fill="#A37153"/>
<path d="M45.962 41.4356C44.8324 41.4009 43.7212 41.1406 42.6937 40.6699C41.6663 40.1993 40.7434 39.5279 39.9794 38.6952C38.5034 37.106 37.4505 35.2069 37.5883 32.9733C37.7457 30.5133 38.3312 28.1124 40.1663 26.2674C41.3668 25.062 43.0346 25.126 44.3089 26.2674C44.9394 26.7611 45.3524 27.4813 45.4602 28.2748C45.4908 28.7532 45.3968 29.2314 45.1872 29.6626C44.9776 30.0938 44.6597 30.4632 44.2646 30.7347C43.0229 31.6822 41.6354 32.4216 40.1565 32.9241C39.7727 33.0668 39.5563 33.2144 39.6645 33.7211C39.9422 35.147 40.6562 36.4513 41.7078 37.4535C42.7593 38.4557 44.0964 39.1062 45.534 39.3151C48.0874 39.625 50.0751 38.6263 51.8512 36.9732C52.3776 36.4812 52.722 36.4418 53.2189 36.8059C53.3283 36.8905 53.4199 36.9961 53.4881 37.1164C53.5564 37.2367 53.6 37.3694 53.6165 37.5068C53.633 37.6442 53.622 37.7834 53.5841 37.9165C53.5463 38.0496 53.4823 38.1738 53.396 38.2819C52.5202 39.3148 51.4149 40.1286 50.1685 40.6582C48.8428 41.2309 47.4048 41.4967 45.962 41.4356ZM40.0581 30.7052C41.1229 30.3441 42.1132 29.7923 42.9805 29.0767C43.1626 28.9291 43.4282 28.6388 43.384 28.4961C43.317 28.2929 43.2066 28.1067 43.0604 27.9504C42.9143 27.7941 42.736 27.6714 42.5377 27.5909C42.3957 27.5082 42.2303 27.475 42.0674 27.4964C41.9045 27.5177 41.7533 27.5925 41.6374 27.709C40.7764 28.5109 40.3926 29.5588 40.0581 30.7052Z" fill="#A37153"/>
<path d="M89.1787 40.5057C86.4186 40.4467 84.3178 39.1429 82.6991 36.9978C81.773 35.7406 81.1134 34.3075 80.7607 32.7864C80.4664 31.4439 80.5087 30.0496 80.8837 28.7274C81.0659 27.8185 81.451 26.9624 82.0103 26.2232C83.2305 24.7472 84.8934 24.7472 86.4777 25.7312C86.9467 26.0117 87.3442 26.3974 87.6387 26.8579C88.4751 28.1813 87.6978 29.3769 86.7482 30.2083C85.7987 31.0398 84.7065 31.4334 83.6733 32.0287C83.6095 32.0713 83.5399 32.1044 83.4667 32.1271C82.7336 32.2747 82.6942 32.2845 82.9205 32.9684C83.6241 35.0692 84.8098 36.8207 86.7974 37.8883C88.5194 38.828 90.2414 38.6116 91.9142 37.6768C92.2012 37.5172 92.4759 37.3363 92.7358 37.1356C92.9658 36.9886 93.2437 36.9362 93.5115 36.9894C93.7792 37.0426 94.016 37.1972 94.1724 37.4209C94.3035 37.6635 94.3447 37.9445 94.2889 38.2145C94.2331 38.4845 94.0838 38.7262 93.8674 38.8969C92.5131 39.914 90.8721 40.4771 89.1787 40.5057ZM82.6352 30.1345C83.6941 29.6958 84.6875 29.113 85.5871 28.4027C85.7495 28.2748 85.9365 28.1321 85.7938 27.8664C85.686 27.6593 85.5262 27.4838 85.3301 27.3569C85.1341 27.2301 84.9084 27.1564 84.6753 27.143C84.4422 27.1296 84.2096 27.177 84.0003 27.2806C83.791 27.3841 83.6122 27.5402 83.4814 27.7336C83.0517 28.4739 82.7646 29.2883 82.6352 30.1345Z" fill="#A37153"/>
<path d="M9.9679 12.3934C12.4279 11.5816 14.9813 11.311 17.3478 12.5508C19.9357 13.9087 21.9332 15.8964 22.6416 18.8926C22.8131 19.8682 22.8248 20.8652 22.6761 21.8445C22.4498 22.3365 22.5039 23.0057 21.6134 23.0598C18.64 23.3071 15.6901 22.3639 13.4118 20.4374C11.4321 18.8113 9.8983 16.7086 8.95439 14.3269C8.5362 13.2937 8.54112 13.2937 9.33815 12.6246C9.39417 12.6414 9.45421 12.6389 9.50865 12.6175C9.56308 12.5961 9.60873 12.557 9.63826 12.5065C9.69828 12.5209 9.76116 12.518 9.81955 12.4979C9.87793 12.4779 9.92939 12.4416 9.9679 12.3934ZM13.6136 12.6197L13.4906 12.5065C13.4906 12.3737 13.5644 12.1867 13.3184 12.172C13.2839 12.172 13.22 12.172 13.22 12.1966C13.2231 12.2709 13.2501 12.3422 13.2972 12.3998C13.3442 12.4575 13.4086 12.4984 13.4807 12.5164L13.5742 12.664L13.6874 12.8952C14.0544 13.6294 14.2908 14.4218 14.386 15.2371C14.4401 15.8078 14.7747 15.9554 15.2617 16.103C15.2762 15.4798 15.1512 14.8613 14.8958 14.2926C14.6404 13.724 14.2612 13.2197 13.7858 12.8165L13.6136 12.6197ZM12.6296 12.2654C12.1823 12.2397 11.7337 12.2863 11.3012 12.4032C10.4697 12.5656 10.455 12.6098 10.9519 13.2986C11.0808 13.445 11.1855 13.6111 11.2618 13.7906C11.3263 14.0038 11.4559 14.1914 11.6323 14.3273C11.8088 14.4631 12.0233 14.5404 12.2458 14.5483C12.2753 14.5877 12.3098 14.627 12.3541 14.5483C12.3983 14.4696 12.3147 14.5089 12.2999 14.4843C12.1371 13.9374 11.8274 13.4456 11.4045 13.0625C11.2717 12.9395 11.1339 12.7968 11.2864 12.6148C11.439 12.4327 11.6653 12.5705 11.7784 12.7033C12.0076 12.944 12.2089 13.2097 12.3787 13.4954C12.6443 13.953 12.8707 14.4351 13.1117 14.8976C13.2446 15.1338 13.525 15.3207 13.7267 15.2518C13.9284 15.183 13.7808 14.8829 13.7267 14.6811C13.5209 13.8083 13.1429 12.9853 12.6148 12.2605L12.6591 12.2015L12.6296 12.2654ZM17.6725 13.3724C17.8595 13.9431 18.1005 14.3269 18.1645 14.7648C18.3423 15.8482 18.3655 16.9515 18.2334 18.0414C18.2039 18.3908 18.4154 18.4744 18.5778 18.6466C18.593 18.6727 18.6155 18.694 18.6425 18.7077C18.6695 18.7214 18.6999 18.727 18.73 18.7239C18.7601 18.7208 18.7887 18.709 18.8123 18.6901C18.8359 18.6711 18.8536 18.6458 18.8631 18.6171C19.4414 17.7971 19.7571 16.8209 19.7684 15.8176C19.7389 14.5237 18.8238 13.9776 17.6676 13.3724H17.6725ZM13.4118 19.8274C13.9629 20.4276 14.445 20.7523 15.1535 20.6884C15.862 20.6244 16.4474 20.6884 17.092 20.6539C17.8677 20.6157 18.6262 20.411 19.3158 20.0537C19.2153 19.8885 19.0684 19.7565 18.8934 19.6742C18.7184 19.592 18.5231 19.5631 18.3318 19.5912C16.723 19.5961 15.1584 19.9405 13.4118 19.8274ZM15.8718 12.6738C16.2388 13.3088 16.4919 14.0032 16.6196 14.7254C16.7623 15.5323 16.8804 16.349 16.9936 17.1854C17.0129 17.3519 17.0927 17.5056 17.2179 17.6172C17.343 17.7287 17.5048 17.7904 17.6725 17.7905C17.9283 17.7905 17.8103 17.4068 17.8201 17.1903C17.9498 15.8965 17.6821 14.5939 17.0526 13.4561C16.9324 13.241 16.7625 13.0577 16.5571 12.9216C16.3517 12.7856 16.1167 12.7006 15.8718 12.6738ZM16.8558 17.9234C16.4917 17.6577 16.2851 17.3576 15.9308 17.3527C14.3516 17.3527 12.7772 17.3527 11.188 17.3527C11.2864 17.9726 11.7538 17.9824 12.172 18.0906C13.707 18.4941 15.2125 18.2924 16.8558 17.9234ZM15.1289 16.8065C13.6529 15.6651 11.99 15.98 10.332 16.0489C10.3457 16.2577 10.4381 16.4536 10.5906 16.597C10.7431 16.7403 10.9443 16.8205 11.1536 16.8213C12.4763 16.89 13.8018 16.8851 15.124 16.8065H15.1289ZM12.1769 18.6417C12.4771 19.0008 12.6689 19.3305 13.1265 19.36C14.8386 19.4584 16.5311 19.1435 18.3711 19.0992C17.8791 18.7598 17.6282 18.2678 17.0231 18.4154C15.4329 18.8172 13.7779 18.8942 12.1573 18.6417H12.1769ZM20.0784 19.9651C20.6491 18.4892 21.0623 17.0525 20.4031 15.5667C20.4023 16.5748 20.1212 17.5627 19.5913 18.4203C19.2124 19.0107 19.2616 19.4043 19.8274 19.7634C19.9078 19.8268 19.9849 19.8941 20.0587 19.9651H20.0784ZM14.1252 12.2802C14.1252 12.5114 14.327 12.5902 14.4352 12.723C15.2027 13.6578 15.7833 14.691 15.6947 15.9308C15.6736 16.036 15.6746 16.1444 15.6977 16.2492C15.7208 16.354 15.7655 16.4528 15.8289 16.5394C15.8923 16.626 15.9731 16.6984 16.066 16.752C16.159 16.8056 16.262 16.8393 16.3687 16.8508C16.4119 16.5203 16.3816 16.1843 16.2802 15.8668C16.1473 14.7205 15.9751 13.5938 15.1191 12.6689C15.0014 12.5234 14.8479 12.411 14.6736 12.3429C14.4994 12.2747 14.3104 12.2531 14.1252 12.2802ZM15.4389 21.2492C15.9484 21.6736 16.6028 21.8835 17.2642 21.8347C18.19 21.6832 19.1005 21.4494 19.9849 21.1361C20.2063 21.0721 20.221 20.9836 20.0931 20.8114C19.9062 20.5555 19.7782 20.4129 19.3896 20.5949C18.1891 21.1607 16.8558 21.2099 15.4389 21.2492ZM21.0771 21.0721C21.8446 19.8077 21.9528 17.6577 21.2739 16.8508C21.2652 17.8314 21.0646 18.8008 20.6835 19.7044C20.3588 20.3538 20.6097 20.7081 21.0771 21.0721ZM17.9431 22.2677C18.9583 22.5803 20.022 22.7054 21.082 22.6367C21.2198 22.6367 21.4215 22.6367 21.4608 22.4399C21.5002 22.2431 20.6441 21.4854 20.3539 21.5543C19.5421 21.7511 18.7697 22.0955 17.9431 22.2677ZM12.7231 15.4486C12.336 15.1904 11.8959 15.0223 11.4353 14.9567C10.9746 14.8911 10.5051 14.9298 10.0614 15.0698C9.9433 15.0993 9.75634 15.1092 9.85474 15.3207C9.90394 15.4388 9.9433 15.5864 10.1352 15.547C10.9519 15.3945 11.808 15.5372 12.7231 15.4486ZM22.0709 22.1742C22.3374 21.3957 22.3934 20.5607 22.2333 19.7536C22.0365 20.1521 21.943 20.5949 21.7413 20.9639C21.4018 21.4805 21.5051 21.8298 22.0611 22.1742H22.0709ZM10.7059 13.9431C10.609 13.6846 10.4581 13.4498 10.2631 13.2544C10.2045 13.1711 10.1268 13.1032 10.0364 13.0563C9.94611 13.0094 9.84582 12.9849 9.74404 12.9849C9.64226 12.9849 9.54197 13.0094 9.45163 13.0563C9.36129 13.1032 9.28356 13.1711 9.22499 13.2544C9.13151 13.3528 9.00359 13.5151 9.24959 13.5348C9.73666 13.5938 10.1499 13.8939 10.7059 13.9431ZM9.6235 14.8337C9.80554 14.5581 10.086 14.5532 10.3861 14.4597C10.0699 14.2696 9.71842 14.1457 9.35291 14.0957C9.37474 14.3616 9.46826 14.6166 9.6235 14.8337Z" fill="#1D713B"/>
<path d="M185.231 66.7929C185.231 65.2432 185.231 63.7327 185.231 62.2223C185.231 61.8582 185.482 61.7303 185.841 61.7549C186.2 61.7795 186.333 61.9468 186.333 62.2863C186.333 63.5261 186.333 64.7462 186.333 66.0008C186.362 66.5814 186.426 67.1597 186.525 67.7326C186.564 68.077 186.717 68.0967 186.982 68.0918H190.756C191.086 68.0918 191.396 68.0918 191.405 68.5543C191.415 69.0167 191.115 69.0463 190.785 69.0463C189.25 69.0463 187.715 69.0463 186.18 69.0463C185.6 69.0463 185.457 68.7117 185.418 68.2345C185.418 68.0524 185.506 67.772 185.27 67.7425C185.034 67.713 185.019 67.9934 184.921 68.1459C183.937 69.6219 182.21 69.7301 180.857 68.9823C178.136 67.5063 177.792 65.1841 178.835 62.6356C178.975 62.3093 179.189 62.0196 179.459 61.7889C179.729 61.5583 180.049 61.3928 180.393 61.3053C180.737 61.2178 181.097 61.2106 181.444 61.2843C181.792 61.358 182.118 61.5106 182.397 61.7303C182.696 61.9713 182.898 62.3119 182.965 62.6897C183.033 63.0675 182.962 63.4571 182.766 63.7869C182.286 64.6314 181.501 65.2599 180.572 65.5433C180.154 65.6761 179.799 65.6121 179.666 65.1792C179.534 64.7462 179.848 64.638 180.227 64.5445C180.742 64.4077 181.195 64.1029 181.516 63.6786C181.782 63.349 182.008 63.0046 181.679 62.5815C181.501 62.4269 181.28 62.3307 181.046 62.3061C180.812 62.2815 180.576 62.3295 180.37 62.4437C180.15 62.5773 179.978 62.777 179.878 63.0144C178.869 65.4154 179.666 67.7277 182.372 68.4263C182.953 68.5789 183.735 68.0377 184.099 67.28C184.39 66.6699 184.572 66.5912 185.231 66.7929ZM185.29 67.6293C185.29 67.6293 185.324 67.5998 185.329 67.585C185.334 67.5703 185.329 67.5555 185.295 67.5358C185.26 67.5162 185.26 67.5654 185.255 67.5801C185.251 67.5949 185.275 67.6047 185.29 67.6244V67.6293Z" fill="#A47356"/>
<path d="M167.332 64.6625C168.016 63.4472 168.911 62.5125 170.387 62.3009C170.778 62.2217 171.184 62.2755 171.541 62.4538C171.897 62.6322 172.184 62.9247 172.355 63.2849C172.557 63.6785 172.685 63.6736 172.936 63.339C173.556 62.5174 174.367 61.9959 175.396 62.232C175.915 62.3495 176.392 62.6091 176.772 62.9818C177.153 63.3545 177.422 63.8257 177.551 64.3427C177.792 65.1397 177.969 65.9564 178.185 66.7633C178.402 67.5701 178.677 68.3032 179.597 68.5394C179.661 68.5515 179.722 68.5786 179.773 68.6186C179.825 68.6585 179.866 68.7101 179.894 68.7692C179.922 68.8282 179.936 68.893 179.933 68.9583C179.931 69.0235 179.914 69.0873 179.883 69.1445C179.861 69.216 179.825 69.2823 179.777 69.3393C179.729 69.3963 179.669 69.4429 179.603 69.4761C179.536 69.5093 179.463 69.5284 179.388 69.5323C179.314 69.5362 179.239 69.5248 179.169 69.4988C178.778 69.404 178.414 69.2177 178.109 68.9551C177.804 68.6925 177.565 68.3612 177.413 67.9883C177.113 67.2485 176.895 66.478 176.763 65.6907C176.652 64.9772 176.369 64.3015 175.937 63.7228C175.396 63.029 174.869 63.0094 174.19 63.5702C173.496 64.2163 173.055 65.0884 172.945 66.0302C172.944 66.1177 172.923 66.2038 172.884 66.2822C172.845 66.3605 172.789 66.4293 172.721 66.4834C172.652 66.5376 172.572 66.5758 172.487 66.5953C172.401 66.6147 172.313 66.615 172.227 66.596C171.765 66.5665 171.794 66.2368 171.799 65.9121C171.834 65.3853 171.789 64.8562 171.666 64.3427C171.361 63.3046 170.648 63.034 169.748 63.6145C168.478 64.4263 168.04 65.676 167.848 67.0585C167.781 67.6597 167.744 68.264 167.74 68.869C167.74 69.2774 167.573 69.6267 167.096 69.607C166.618 69.5873 166.545 69.238 166.55 68.8542C166.617 67.6465 166.511 66.4353 166.235 65.2578C165.988 64.2653 165.448 63.3702 164.685 62.6896C164.395 62.4436 164.306 62.1631 164.567 61.8876C164.622 61.8311 164.688 61.7862 164.76 61.7555C164.833 61.7248 164.911 61.709 164.99 61.709C165.069 61.709 165.147 61.7248 165.22 61.7555C165.292 61.7862 165.358 61.8311 165.413 61.8876C166.222 62.5461 166.823 63.4243 167.145 64.4165C167.209 64.5198 167.209 64.6182 167.332 64.6625Z" fill="#A47356"/>
<path d="M157.113 66.1484C156.778 66.7929 156.498 67.4325 156.129 68.013C155.87 68.4996 155.479 68.9021 154.999 69.1732C154.52 69.4443 153.973 69.5727 153.423 69.5431C151.947 69.4595 150.987 68.382 150.963 66.7388C151.007 65.6512 151.155 64.5704 151.406 63.5113C151.49 63.1124 151.546 62.7079 151.573 62.301C151.573 61.8926 151.755 61.7401 152.148 61.75C152.542 61.7598 152.685 61.9222 152.67 62.2912C152.626 63.2751 152.375 64.2591 152.242 65.2431C152.085 65.887 152.052 66.5548 152.144 67.2111C152.291 67.8359 152.498 68.3082 153.128 68.4903C153.442 68.5757 153.776 68.5626 154.083 68.4526C154.39 68.3426 154.656 68.1411 154.845 67.8753C155.496 67.0657 155.958 66.1211 156.198 65.1103C156.504 64.2486 156.653 63.3385 156.635 62.424C156.606 62.055 156.822 61.8877 157.172 61.873C157.521 61.8582 157.693 61.9271 157.718 62.2616C157.86 64.2296 158.293 66.1533 158.313 68.1213C158.343 70.9256 156.635 72.5984 153.836 72.623C152.974 72.6768 152.116 72.4675 151.376 72.0228C151.11 71.8457 150.717 71.6931 150.973 71.27C151.228 70.8469 151.553 70.8617 151.932 71.1224C153.501 72.19 155.814 71.6144 156.64 70.2909C157.184 69.3104 157.38 68.1745 157.196 67.0684C157.194 66.7599 157.166 66.4522 157.113 66.1484Z" fill="#A47356"/>
<path d="M146.146 63.9196C147.002 64.0918 147.809 64.0131 148.606 64.2148C149.708 64.5002 150.392 65.1349 150.441 66.0008C150.525 67.3784 150.028 68.1655 148.793 68.5739C147.551 68.9442 146.25 69.0695 144.96 68.9429C144.7 68.9429 144.468 68.8297 144.35 69.1791C144.252 69.4201 143.971 69.4349 143.73 69.4152C143.489 69.3955 143.381 69.2086 143.317 68.9872C143.106 68.0983 142.958 67.1958 142.874 66.2861C142.687 64.9971 142.525 63.7081 142.23 62.4387C142.146 62.0894 142.013 61.7549 142.52 61.5827C143.027 61.4105 143.15 61.6762 143.268 62.0747C143.342 62.301 143.44 62.3699 143.691 62.2075C144.094 61.9619 144.54 61.7949 145.005 61.7155C145.271 61.6327 145.557 61.6356 145.822 61.7239C146.087 61.8122 146.317 61.9813 146.481 62.2075C146.636 62.4327 146.704 62.7072 146.672 62.9791C146.639 63.2509 146.508 63.5015 146.304 63.6835C146.244 63.757 146.191 63.8361 146.146 63.9196ZM145.821 65.0463C145.241 65.0463 144.788 65.0709 144.345 65.0463C143.903 65.0217 143.785 65.189 143.853 65.5924C143.967 66.2222 144.085 66.8519 144.154 67.4817C144.183 67.7867 144.291 67.8556 144.577 67.8999C145.485 68.0351 146.409 68.0351 147.317 67.8999C147.568 67.8654 147.809 67.8211 148.065 67.767C148.421 67.7191 148.748 67.5427 148.984 67.2709C149.219 66.9991 149.347 66.6507 149.344 66.291C149.344 65.7253 148.793 65.3071 147.976 65.1496C147.262 65.0566 146.541 65.022 145.821 65.0463ZM143.853 63.8704C144.455 63.706 145.001 63.3812 145.433 62.9307C145.511 62.7536 145.433 62.6355 145.265 62.6798C144.701 62.8368 144.166 63.0844 143.681 63.4129C143.543 63.5015 143.637 63.6146 143.681 63.7228C143.726 63.8311 143.721 63.9049 143.853 63.8704Z" fill="#A47356"/>
<path d="M9.32786 12.6245C8.53083 13.2936 8.52591 13.2936 8.9441 14.3268C9.89079 16.7096 11.4281 18.8124 13.4114 20.4374C15.691 22.3525 18.6364 23.2865 21.6031 23.0351C22.4936 22.981 22.4395 22.3315 22.6658 21.8199C22.9561 23.8764 23.1922 23.5468 21.2439 23.6845C16.3732 24.024 12.7374 21.8543 10.1003 17.8544C9.2466 16.5128 8.54839 15.0785 8.01916 13.579C7.89616 13.2395 7.94536 13.087 8.28975 12.9689C8.615 12.799 8.96554 12.6827 9.32786 12.6245Z" fill="#8DC543"/>
<path d="M28.6639 6.12043C28.569 6.53784 28.4025 6.93567 28.1719 7.2963C27.1916 9.44188 26.9477 11.8513 27.4782 14.1498C27.5011 14.3117 27.5801 14.4605 27.7015 14.5702C27.8229 14.6799 27.9789 14.7435 28.1424 14.75C29.1481 14.9488 30.1851 14.9269 31.1815 14.6856C32.1779 14.4444 33.11 13.9896 33.9134 13.3527C36.2652 11.5373 37.3869 9.06748 37.692 6.14996C37.7266 5.37054 37.7068 4.58966 37.6329 3.81299C37.9641 4.49663 38.1325 5.24767 38.1249 6.00728C38.4103 9.6185 36.7818 12.1867 33.697 13.9333C31.8135 14.9377 29.7825 15.6369 27.6799 16.0046C27.4388 16.0538 27.3207 16.0046 27.2519 15.7635C26.7599 14.165 26.6226 12.4785 26.8495 10.8215C27.0763 9.16455 27.662 7.57701 28.5655 6.16963C28.5901 6.14011 28.6639 6.13519 28.6639 6.12043Z" fill="#8DC543"/>
<path d="M195.942 69.3758C194.849 69.302 193.757 69.238 192.665 69.1593C192.517 69.1633 192.373 69.1087 192.266 69.0073C192.158 68.9059 192.094 68.766 192.089 68.6181C191.868 66.8863 191.597 65.1742 191.4 63.4325C191.337 62.911 191.4 62.3698 191.4 61.8434C191.376 61.435 191.538 61.2825 191.932 61.2628C192.009 61.2503 192.087 61.256 192.161 61.2797C192.235 61.3033 192.303 61.3442 192.358 61.3989C192.413 61.4537 192.454 61.5207 192.479 61.5945C192.503 61.6683 192.51 61.7469 192.498 61.8237C192.491 62.5285 192.524 63.2332 192.596 63.9344C192.778 65.2578 192.945 66.5862 193.127 67.9047C193.162 68.1753 193.398 68.2442 193.619 68.2344C194.79 68.1606 195.951 68.5099 197.127 68.2344C197.437 68.1655 197.826 68.1507 197.875 68.6476C197.924 69.1446 197.644 69.2085 197.236 69.2626C196.827 69.3167 196.375 69.3266 195.942 69.3758Z" fill="#A57457"/>
<path d="M9.62336 12.5067C9.59383 12.5571 9.54817 12.5962 9.49374 12.6177C9.43931 12.6391 9.37926 12.6416 9.32324 12.6247C9.38228 12.4821 9.50528 12.5017 9.62336 12.5067Z" fill="#8DC543"/>
<path d="M29.0473 5.51514C29.0473 5.63813 29.0473 5.74145 28.9046 5.77589C28.8958 5.72274 28.9051 5.66818 28.931 5.62091C28.9568 5.57365 28.9978 5.53641 29.0473 5.51514Z" fill="#8DC543"/>
<path d="M9.9673 12.3931C9.92919 12.4405 9.87855 12.4762 9.82114 12.4962C9.76374 12.5162 9.70187 12.5197 9.64258 12.5063C9.67949 12.4575 9.73002 12.4207 9.78781 12.4006C9.84559 12.3804 9.90804 12.3778 9.9673 12.3931Z" fill="#8DC543"/>
<path d="M28.8058 5.89404C28.8058 6.01212 28.8058 6.1056 28.668 6.12528C28.6606 6.10104 28.6584 6.07552 28.6615 6.05037C28.6646 6.02522 28.6728 6.00099 28.6858 5.97923C28.6988 5.95746 28.7161 5.93864 28.7368 5.92397C28.7574 5.90931 28.7809 5.89911 28.8058 5.89404Z" fill="#8DC543"/>
<path d="M28.9138 5.78564C28.9138 5.86436 28.9138 5.9234 28.8055 5.9234C28.8006 5.82008 28.8154 5.78564 28.9138 5.78564Z" fill="#8DC543"/>
<path d="M29.1551 65.6221C29.5093 65.7254 29.4896 66.0797 29.588 66.3257C29.7558 66.8495 29.8046 67.4042 29.7307 67.9492C29.7307 68.3133 29.4699 68.6971 29.1501 68.6479C28.5942 68.5691 28.0727 68.7758 27.5315 68.702C27.1401 68.6731 26.7653 68.5327 26.4513 68.2972C26.1374 68.0618 25.8976 67.7412 25.7603 67.3736C25.5438 66.8226 25.1404 66.3257 25.3569 65.6664C25.4258 65.4647 25.4504 65.263 25.716 65.3023C25.9817 65.3417 25.9473 65.5237 25.962 65.7107C25.9881 66.0412 26.0341 66.3697 26.0998 66.6947C26.3556 67.8853 28.3679 68.7315 29.3371 68.0575C29.6323 67.8508 29.5191 67.5163 29.465 67.2408C29.302 66.719 29.1948 66.1813 29.1452 65.6369L29.1551 65.6221Z" fill="#684734"/>
<path d="M30.9219 66.2026C31.052 66.782 31.082 67.3794 31.0104 67.9689C30.8481 67.3883 31.0498 66.793 30.9219 66.2026Z" fill="#684734"/>
<path d="M26.9365 50.2716C27.3139 50.1643 27.7102 50.1408 28.0976 50.2027C27.9232 50.3048 27.7271 50.3642 27.5253 50.3762C27.3236 50.3881 27.1218 50.3523 26.9365 50.2716Z" fill="#684734"/>
<path d="M32.757 66.2617C33.1014 66.5815 32.8406 66.9456 32.9243 67.2457C32.8283 67.1029 32.7638 66.9413 32.735 66.7717C32.7061 66.602 32.7136 66.4282 32.757 66.2617Z" fill="#684734"/>
<path d="M29.1552 65.6319C29.1128 65.6116 29.0799 65.5757 29.0633 65.5317C29.0468 65.4876 29.048 65.439 29.0666 65.3958C29.0666 65.3958 29.0666 65.3958 29.1109 65.3613C29.1109 65.4499 29.1453 65.5335 29.165 65.6221L29.1552 65.6319Z" fill="#684734"/>
<path d="M36.5352 9.22949C35.876 11.2368 34.7837 11.8125 32.8994 11.2319C32.6352 11.1588 32.3783 11.0616 32.1319 10.9416C31.9646 10.8481 31.571 10.9121 31.6842 10.5677C31.716 10.4133 31.803 10.2756 31.9288 10.1806C32.0546 10.0855 32.2108 10.0395 32.3681 10.0511C33.0334 10.0822 33.7002 10.0542 34.3606 9.96748C35.1191 9.83476 35.8526 9.58584 36.5352 9.22949Z" fill="#89C241"/>
<path d="M30.3606 11.3208C29.8325 10.4518 29.5079 9.47459 29.4111 8.46233C29.3274 7.90638 29.3422 7.33075 29.2684 6.76988C29.1798 6.1352 29.48 5.69241 29.9572 5.1709C29.9572 7.06015 30.6312 8.74277 30.705 10.5139C30.7303 10.6673 30.7114 10.8246 30.6503 10.9675C30.5893 11.1105 30.4888 11.233 30.3606 11.3208Z" fill="#8AC341"/>
<path d="M32.2155 8.63439C31.6515 7.19977 31.4324 5.65271 31.5759 4.1179C31.6448 3.6259 31.4284 3.00107 32.2155 2.79443C32.2697 4.32453 32.5649 5.83003 32.7075 7.35028C32.7228 7.58713 32.6868 7.82447 32.6019 8.0461C32.5169 8.26772 32.3852 8.46839 32.2155 8.63439Z" fill="#8AC341"/>
<path d="M37.1254 7.31592C37.1992 8.04899 36.7367 8.41306 36.2447 8.73778C35.0886 9.51021 33.7848 9.58892 32.4121 9.5594C32.5351 9.10677 32.6876 8.78698 33.2042 8.67874C34.0455 8.50654 34.8721 8.25562 35.7035 8.01455C36.2077 7.84902 36.6863 7.61388 37.1254 7.31592Z" fill="#8AC341"/>
<path d="M31.0155 3.95557C30.9347 5.66918 31.1956 7.38175 31.783 8.99358C31.97 9.56429 31.4435 9.7906 31.2024 10.3072C31.0106 8.39826 30.4546 6.69597 30.4153 4.89527C30.4054 4.359 30.7351 4.236 31.0155 3.95557Z" fill="#89C241"/>
<path d="M33.1896 6.9029C32.9731 5.45644 32.8156 4.14281 32.6976 2.81443C32.662 2.64942 32.6829 2.47725 32.757 2.32556C32.831 2.17388 32.9539 2.05148 33.1059 1.97805C33.3519 1.83045 33.4897 1.8944 33.5094 2.16008C33.593 3.27198 33.8488 4.37405 33.7554 5.50071C33.6708 6.00363 33.4777 6.48211 33.1896 6.9029Z" fill="#88C141"/>
<path d="M27.8954 9.77588C28.1581 10.6205 28.4872 11.443 28.8794 12.2358C28.9949 12.4156 29.0359 12.6332 28.9936 12.8426C28.9514 13.052 28.8292 13.2367 28.6531 13.3576C28.4268 13.5593 28.2644 13.8496 28.0037 14.0415C27.5597 12.6593 27.5221 11.1787 27.8954 9.77588Z" fill="#8AC341"/>
<path d="M29.4849 12.3883C28.9928 11.3336 28.596 10.2371 28.2992 9.11167C28.0926 8.30973 28.496 7.8079 28.7371 7.18799C28.8236 8.11645 28.9782 9.03731 29.1996 9.94314C29.2983 10.4258 29.4851 10.8861 29.7506 11.301C30.1048 11.7881 29.8834 12.0636 29.4849 12.3883Z" fill="#88C141"/>
<path d="M34.6759 11.9109C34.637 12.0474 34.5562 12.1683 34.445 12.2566C34.3338 12.3448 34.1978 12.396 34.056 12.4029C33.0318 12.5657 31.9846 12.5053 30.9859 12.2258C30.617 12.1274 30.5481 12.0339 30.7744 11.6895C31.0794 11.2221 31.3549 11.1041 31.8863 11.3943C32.7482 11.8281 33.7158 12.0073 34.6759 11.9109Z" fill="#89C241"/>
<path d="M37.3871 5.54492C37.4316 5.81696 37.394 6.09608 37.2792 6.34669C37.1644 6.5973 36.9776 6.80804 36.7425 6.95202C36.0578 7.41534 35.2806 7.72424 34.4646 7.85729L33.2002 8.15741C33.3626 7.6113 33.5348 7.28658 34.1842 7.29642C35.2666 7.29642 36.1128 6.71095 36.8901 6.01724C37.0279 5.87456 37.1903 5.72696 37.3871 5.54492Z" fill="#88C141"/>
<path d="M34.4941 5.43127C34.4997 5.25582 34.5473 5.08428 34.6329 4.93104C34.7185 4.7778 34.8397 4.64733 34.9861 4.5506C35.7621 4.16099 36.4516 3.61882 37.0131 2.95654C37.4067 3.94053 37.4117 3.94053 36.6737 4.50632C36.0285 4.97906 35.2824 5.29567 34.4941 5.43127Z" fill="#88C141"/>
<path d="M33.583 12.9834C32.9828 13.3424 32.306 13.554 31.6082 13.6011C30.9104 13.6481 30.2114 13.5292 29.5684 13.254C29.9472 12.5062 30.0604 12.4521 30.7688 12.6636C31.6853 12.9118 32.6342 13.0196 33.583 12.9834Z" fill="#8AC341"/>
<path d="M37.1064 4.98392C36.5082 5.89033 35.5827 6.53028 34.5234 6.76985C34.3168 6.81905 33.9921 6.98633 33.9281 6.70589C33.9061 6.56032 33.9347 6.41161 34.009 6.28451C34.0833 6.1574 34.1988 6.05956 34.3365 6.00726C34.7202 5.87443 35.1187 5.76619 35.5123 5.65795C36.0429 5.46234 36.5522 5.21343 37.0326 4.91504L37.1064 4.98392Z" fill="#87BF41"/>
<path d="M34.307 1.2002C34.5677 2.2629 34.9663 3.28133 34.248 4.31451C34.1643 3.60604 34.0807 2.92709 34.002 2.24814C34.002 2.13006 34.0266 1.97262 33.9626 1.90375C33.5395 1.42651 34.0216 1.39699 34.307 1.2002Z" fill="#87BF41"/>
<path d="M36.6135 1.90869C36.8791 2.24817 36.8939 2.40068 36.584 2.74016C36.1487 3.18749 35.6517 3.57021 35.108 3.87666C35.0588 2.71064 36.21 2.64176 36.6135 1.90869Z" fill="#84BD41"/>
<path d="M28.4414 14.3611C28.771 13.8101 29.0859 13.4952 29.696 13.8052C30.0786 13.9596 30.4759 14.075 30.8817 14.1496C30.0978 14.4186 29.2599 14.4912 28.4414 14.3611Z" fill="#87BF41"/>
<path d="M35.8469 0.708496C36.5504 1.34809 36.5209 1.50552 35.5615 2.18447C35.6137 1.68514 35.7092 1.19129 35.8469 0.708496Z" fill="#84BD41"/>
<path d="M34.3711 1.10689C34.7893 0.964207 35.0107 0.614894 35.2419 0.782172C35.4732 0.949449 35.1878 1.27416 35.1681 1.49556C35.138 1.65579 35.0867 1.81131 35.0156 1.95803C34.9123 1.58904 34.8631 1.25448 34.3711 1.10689Z" fill="#84BD41"/>
<path d="M37.3076 4.71818L37.3568 4.66406C37.3568 4.66406 37.3568 4.69358 37.3568 4.70342H37.3125L37.3076 4.71818Z" fill="#87BF41"/>
<path d="M37.2044 4.84592L37.1011 4.98368C37.0794 4.95951 37.0564 4.93652 37.0322 4.9148L37.17 4.81641L37.2044 4.84592Z" fill="#87BF41"/>
<path d="M37.3126 4.72318C37.2732 4.76254 37.2388 4.80682 37.2044 4.84618L37.1699 4.81666C37.2178 4.78668 37.2638 4.75383 37.3077 4.71826L37.3126 4.72318Z" fill="#87BF41"/>
<path d="M17.668 13.3726C18.7996 13.9777 19.7393 14.5238 19.7885 15.8325C19.7771 16.8358 19.4615 17.812 18.8832 18.632C18.8736 18.6607 18.856 18.686 18.8323 18.705C18.8087 18.7239 18.7802 18.7357 18.75 18.7388C18.7199 18.7419 18.6895 18.7363 18.6626 18.7225C18.6356 18.7088 18.6131 18.6876 18.5978 18.6615C18.4355 18.4893 18.2239 18.4056 18.2534 18.0563C18.3855 16.9663 18.3623 15.8631 18.1846 14.7797C18.096 14.327 17.8402 13.9433 17.668 13.3726Z" fill="#8AC341"/>
<path d="M13.4111 19.8271C15.1479 19.9403 16.7124 19.5959 18.3015 19.5959C18.4929 19.5678 18.6882 19.5966 18.8632 19.6789C19.0382 19.7612 19.1851 19.8931 19.2855 20.0584C18.6 20.412 17.8468 20.6149 17.0765 20.6537C16.432 20.6931 15.7776 20.6291 15.138 20.6881C14.4984 20.7472 13.972 20.4274 13.4111 19.8271Z" fill="#89C241"/>
<path d="M15.8711 12.6738C16.1137 12.698 16.3472 12.7792 16.5525 12.9109C16.7577 13.0426 16.9288 13.221 17.0519 13.4315C17.6814 14.5693 17.9491 15.8719 17.8194 17.1657C17.8194 17.3822 17.9276 17.766 17.6718 17.766C17.5041 17.7659 17.3423 17.7042 17.2171 17.5926C17.092 17.481 17.0121 17.3274 16.9928 17.1608C16.8797 16.349 16.7616 15.5323 16.6189 14.7008C16.4885 13.9871 16.2355 13.3013 15.8711 12.6738Z" fill="#8AC341"/>
<path d="M16.8562 17.9233C15.2179 18.2923 13.7124 18.494 12.1725 18.0856C11.7543 17.9774 11.2869 17.9676 11.1885 17.3477C12.7776 17.3477 14.352 17.3477 15.9313 17.3477C16.2806 17.3575 16.4872 17.6576 16.8562 17.9233Z" fill="#8AC341"/>
<path d="M12.2461 14.5583C12.0234 14.5486 11.8091 14.4701 11.6328 14.3335C11.4566 14.1969 11.3271 14.009 11.2621 13.7957C11.1858 13.6162 11.0811 13.4501 10.9522 13.3037C10.4602 12.6149 10.4602 12.5707 11.3015 12.4083C11.734 12.2914 12.1826 12.2448 12.6299 12.2705C13.158 12.9953 13.536 13.8183 13.7418 14.6912C13.7762 14.8929 13.9337 15.1831 13.7418 15.2619C13.5499 15.3406 13.2498 15.1438 13.1268 14.9076C12.8759 14.4452 12.6348 13.963 12.3937 13.5055C12.224 13.2197 12.0227 12.954 11.7935 12.7133C11.6754 12.5805 11.4835 12.4083 11.3015 12.6248C11.1195 12.8413 11.3015 12.9495 11.4196 13.0725C11.8425 13.4556 12.1522 13.9474 12.315 14.4944C12.2886 14.5116 12.2653 14.5333 12.2461 14.5583Z" fill="#88C141"/>
<path d="M15.1241 16.8065C13.8 16.8803 12.4728 16.8803 11.1488 16.8065C10.9395 16.8057 10.7383 16.7255 10.5858 16.5822C10.4333 16.4388 10.3409 16.2429 10.3271 16.0341C11.9852 15.98 13.6579 15.6651 15.1241 16.8065Z" fill="#88C141"/>
<path d="M12.1572 18.6419C13.7715 18.8917 15.4194 18.8148 17.0034 18.4156C17.6085 18.268 17.8496 18.76 18.3514 19.0995C16.5114 19.1437 14.8189 19.4586 13.1068 19.3602C12.6443 19.3307 12.4573 19.0011 12.1572 18.6419Z" fill="#89C241"/>
<path d="M20.0585 19.9653C19.9784 19.8938 19.8946 19.8265 19.8076 19.7636C19.2418 19.3995 19.1926 19.0108 19.5714 18.4204C20.1013 17.5629 20.3824 16.5749 20.3832 15.5669C21.0277 17.0527 20.6292 18.4697 20.0585 19.9653Z" fill="#89C241"/>
<path d="M14.125 12.2802C14.3073 12.2532 14.4935 12.2734 14.6658 12.3388C14.838 12.4043 14.9906 12.5129 15.109 12.6541C15.9651 13.5791 16.1373 14.7057 16.2701 15.8521C16.3716 16.1696 16.4018 16.5055 16.3587 16.8361C16.252 16.8245 16.1489 16.7908 16.0559 16.7372C15.963 16.6836 15.8822 16.6112 15.8188 16.5246C15.7554 16.4381 15.7107 16.3393 15.6876 16.2345C15.6645 16.1297 15.6635 16.0212 15.6846 15.916C15.7732 14.6615 15.1926 13.643 14.4251 12.7082C14.3267 12.5902 14.1447 12.5114 14.125 12.2802Z" fill="#88C141"/>
<path d="M15.4385 21.249C16.8702 21.2097 18.1887 21.1605 19.3744 20.5947C19.7631 20.4126 19.8664 20.5553 20.078 20.8112C20.2059 20.9833 20.1911 21.0719 19.9697 21.1359C19.0854 21.4492 18.1749 21.683 17.249 21.8345C16.5927 21.8794 15.9443 21.6697 15.4385 21.249Z" fill="#88C141"/>
<path d="M21.0766 21.0719C20.5847 20.7078 20.3583 20.3536 20.6831 19.7041C21.0642 18.8006 21.2648 17.8312 21.2734 16.8506C21.9524 17.6575 21.8442 19.8075 21.0766 21.0719Z" fill="#88C141"/>
<path d="M17.9424 22.2675C18.7689 22.0953 19.5414 21.7509 20.3531 21.5541C20.6434 21.4853 21.5093 22.174 21.4601 22.4397C21.4109 22.7054 21.219 22.6267 21.0813 22.6365C20.0213 22.7052 18.9576 22.5802 17.9424 22.2675Z" fill="#88C141"/>
<path d="M13.7556 12.8164C14.231 13.2196 14.6103 13.7239 14.8657 14.2926C15.121 14.8612 15.2461 15.4797 15.2316 16.1029C14.7396 15.9553 14.41 15.8077 14.3559 15.237C14.2607 14.4218 14.0243 13.6293 13.6572 12.8951L13.7556 12.8164Z" fill="#87BF41"/>
<path d="M12.7231 15.4483C11.808 15.5368 10.9667 15.3942 10.1352 15.5467C9.94335 15.586 9.90399 15.4384 9.85479 15.3204C9.75639 15.1088 9.94335 15.099 10.0614 15.0694C10.5052 14.9294 10.9747 14.8908 11.4353 14.9563C11.896 15.0219 12.3361 15.19 12.7231 15.4483Z" fill="#88C141"/>
<path d="M22.0614 22.174C21.5055 21.8296 21.4022 21.4803 21.717 20.9637C21.9335 20.5947 22.027 20.1519 22.209 19.7534C22.3739 20.5592 22.323 21.3942 22.0614 22.174Z" fill="#88C141"/>
<path d="M10.7063 13.943C10.1503 13.8938 9.72228 13.5937 9.23028 13.5445C8.98429 13.5445 9.1122 13.3625 9.20568 13.2641C9.26425 13.1808 9.34199 13.1129 9.43232 13.066C9.52266 13.0191 9.62295 12.9946 9.72473 12.9946C9.82652 12.9946 9.92681 13.0191 10.0171 13.066C10.1075 13.1129 10.1852 13.1808 10.2438 13.2641C10.4447 13.4547 10.6024 13.6863 10.7063 13.943Z" fill="#84BD41"/>
<path d="M9.62314 14.8337C9.46789 14.6167 9.37437 14.3616 9.35254 14.0957C9.71806 14.1458 10.0696 14.2696 10.3857 14.4598C10.0856 14.5533 9.80517 14.5582 9.62314 14.8337Z" fill="#84BD41"/>
<path d="M13.4561 12.5163C13.3839 12.4983 13.3195 12.4575 13.2725 12.3998C13.2255 12.3422 13.1984 12.2709 13.1953 12.1965C13.1953 12.1965 13.2593 12.167 13.2937 12.1719C13.5397 12.1719 13.4512 12.3737 13.4659 12.5065L13.4561 12.5163Z" fill="#87BF41"/>
<path d="M13.663 12.8951C13.6236 12.8213 13.5842 12.7426 13.5498 12.6639L13.5892 12.6196L13.7564 12.8164L13.663 12.8951Z" fill="#87BF41"/>
<path d="M13.4659 12.5063C13.5045 12.5466 13.5456 12.5844 13.5889 12.6195L13.5495 12.6638C13.5151 12.6146 13.4856 12.5654 13.4561 12.5162L13.4659 12.5063Z" fill="#87BF41"/>
<path d="M12.2992 14.5039C12.2992 14.5285 12.3583 14.5629 12.3534 14.5679C12.3484 14.5728 12.2746 14.5925 12.2451 14.5679L12.2992 14.5039Z" fill="#88C141"/>
<path d="M12.625 12.2655L12.684 12.2212L12.6398 12.2802L12.625 12.2655Z" fill="#88C141"/>
</g>
<defs>
<clipPath id="clip0_650_394">
<rect width="200" height="74.4828" fill="white"/>
</clipPath>
</defs>
</svg>
